<svg width="25" height="35" viewBox="0 0 25 35" fill="none" xmlns="http://www.w3.org/2000/svg">
<g style="mix-blend-mode:multiply">
<path d="M19.5735 32.5931C19.5735 33.7178 16.1061 34.63 11.8275 34.63C7.54901 34.63 4.0816 33.7178 4.0816 32.5931C4.0816 31.4684 7.54901 30.5536 11.8275 30.5536C16.1061 30.5536 19.5735 31.4658 19.5735 32.5931Z" fill="#E4E3E5"/>
</g>
<path d="M12.053 0C5.39806 0 0 5.39806 0 12.053C0 19.1718 12.053 32.917 12.053 32.917C12.053 32.917 24.106 19.6979 24.106 12.053C24.1086 5.39806 18.7105 0 12.053 0ZM12.053 16.7773C9.17126 16.7773 6.83634 14.4423 6.83634 11.5606C6.83634 8.67888 9.17126 6.34395 12.053 6.34395C14.9347 6.34395 17.2697 8.67888 17.2697 11.5606C17.2697 14.4423 14.9347 16.7773 12.053 16.7773Z" fill="#F45844"/>
</svg>
