<?xml version="1.0" standalone="no"?>
<!DOCTYPE svg PUBLIC "-//W3C//DTD SVG 1.1//EN" "http://www.w3.org/Graphics/SVG/1.1/DTD/svg11.dtd" >
<svg xmlns="http://www.w3.org/2000/svg">
<metadata>Generated by IcoMoon</metadata>
<defs>
<font id="icomoon" horiz-adv-x="1024">
<font-face units-per-em="1024" ascent="960" descent="-64" />
<missing-glyph horiz-adv-x="1024" />
<glyph unicode="&#x20;" horiz-adv-x="512" d="" />
<glyph unicode="&#xe900;" d="M512 960c282.77 0 512-229.23 512-512s-229.23-512-512-512c-282.77 0-512 229.23-512 512s229.23 512 512 512z" />
<glyph unicode="&#xe901;" d="M512 891.733c-245.067 0-443.733-198.666-443.733-443.733s198.666-443.733 443.733-443.733c245.067 0 443.733 198.666 443.733 443.733v0c-0.272 244.958-198.776 443.462-443.707 443.733h-0.026zM512 960c282.77 0 512-229.23 512-512s-229.23-512-512-512c-282.77 0-512 229.23-512 512v0c0 282.77 229.23 512 512 512v0z" />
<glyph unicode="&#xe902;" d="M682.667 413.867h-341.333c-18.851 0-34.133 15.282-34.133 34.133v0c0 18.851 15.282 34.133 34.133 34.133v0h341.333c18.851 0 34.133-15.282 34.133-34.133v0c0-18.851-15.282-34.133-34.133-34.133v0z" />
<glyph unicode="&#xe903;" d="M512 243.2c-18.851 0-34.133 15.282-34.133 34.133v0 341.333c0 18.851 15.282 34.133 34.133 34.133v0c18.851 0 34.133-15.282 34.133-34.133v0-341.333c0-18.851-15.282-34.133-34.133-34.133v0z" />
<glyph unicode="&#xe904;" d="M512 960c282.77 0 512-229.23 512-512s-229.23-512-512-512c-282.77 0-512 229.23-512 512s229.23 512 512 512z" />
<glyph unicode="&#xe905;" d="M512 891.733c-245.067 0-443.733-198.666-443.733-443.733s198.666-443.733 443.733-443.733c245.067 0 443.733 198.666 443.733 443.733v0c-0.272 244.958-198.776 443.462-443.707 443.733h-0.026zM512 960c282.77 0 512-229.23 512-512s-229.23-512-512-512c-282.77 0-512 229.23-512 512v0c0 282.77 229.23 512 512 512v0z" />
<glyph unicode="&#xe906;" d="M682.667 413.867h-341.333c-18.851 0-34.133 15.282-34.133 34.133v0c0 18.851 15.282 34.133 34.133 34.133v0h341.333c18.851 0 34.133-15.282 34.133-34.133v0c0-18.851-15.282-34.133-34.133-34.133v0z" />
<glyph unicode="&#xe907;" d="M512 243.2c-18.851 0-34.133 15.282-34.133 34.133v0 341.333c0 18.851 15.282 34.133 34.133 34.133v0c18.851 0 34.133-15.282 34.133-34.133v0-341.333c0-18.851-15.282-34.133-34.133-34.133v0z" />
<glyph unicode="&#xe908;" glyph-name="Ade-1" d="M535.245 103.245l-62.003-45.747c-0.243-0.155-0.54-0.247-0.858-0.247-0.891 0-1.613 0.722-1.613 1.613 0 0.161 0.024 0.317 0.068 0.464l-0.003-0.011c23.987 91.699 16.947 69.299 128 541.568l-290.893 1.050c5.795-42.486 14.209-80.195 25.423-116.678l-1.359 5.139 61.082-209.638c4.34-15.94 6.834-34.242 6.834-53.127 0-1.123-0.009-2.243-0.026-3.362l0.002 0.169c-1.577-41.38-8.531-80.544-20.186-117.624l0.858 3.166-33.28-123.085c-0.241-0.86-0.38-1.847-0.38-2.867 0-6.069 4.912-10.991 10.977-11.008h0.002l308.762-1.126c0.018 0 0.038 0 0.059 0 6.080 0 11.008 4.928 11.008 11.008 0 1.001-0.134 1.971-0.384 2.893l0.018-0.077-32.333 123.136c-10.574 34.074-17.266 73.389-18.543 114.069l-0.017 0.696c-0.002 0.362-0.004 0.791-0.004 1.219 0 19.852 2.74 39.064 7.862 57.279l-0.357-1.487 62.413 208.486c10.050 31.173 18.718 68.719 24.359 107.248l0.473 3.932-48.794 0.179zM504.653 448.026c8.92-0.203 16.073-7.482 16.073-16.431 0-9.077-7.358-16.435-16.435-16.435s-16.435 7.358-16.435 16.435c0 0.125 0.001 0.249 0.004 0.373v-0.018c0.184 8.92 7.459 16.081 16.406 16.081 0.136 0 0.272-0.002 0.407-0.005h-0.020zM471.245 547.866c1.704 1.7 4.056 2.752 6.654 2.752 5.203 0 9.421-4.218 9.421-9.421s-4.218-9.421-9.421-9.421c-2.598 0-4.95 1.052-6.654 2.752v0c-1.703 1.708-2.756 4.066-2.756 6.669s1.053 4.96 2.756 6.669v0zM400.23 488.73c-4.532 1.007-7.871 4.992-7.871 9.758 0 5.514 4.47 9.984 9.984 9.984s9.984-4.47 9.984-9.984c0-0.736-0.080-1.453-0.231-2.144l0.012 0.066c-0.993-4.55-4.987-7.906-9.765-7.906-0.749 0-1.478 0.082-2.179 0.239l0.066-0.012zM423.27 384.333c-1.868-1.95-4.493-3.163-7.401-3.163-5.655 0-10.24 4.585-10.24 10.24s4.585 10.24 10.24 10.24c2.78 0 5.302-1.108 7.147-2.907l-0.002 0.002c1.91-1.862 3.095-4.46 3.095-7.336 0-2.747-1.082-5.242-2.843-7.081l0.004 0.004zM462.259 22.605c-1.592-5.914-6.907-10.196-13.221-10.196-7.55 0-13.67 6.12-13.67 13.67s6.12 13.67 13.67 13.67c1.242 0 2.445-0.166 3.589-0.476l-0.096 0.022c5.905-1.599 10.177-6.909 10.177-13.216 0-1.235-0.164-2.432-0.471-3.57l0.022 0.096zM448.666 251.853c-1.252 2.175-1.991 4.782-1.991 7.562 0 8.483 6.877 15.36 15.36 15.36s15.36-6.877 15.36-15.36c0-5.761-3.172-10.782-7.865-13.41l-0.078-0.040c-2.139-1.202-4.696-1.91-7.418-1.91-5.703 0-10.68 3.108-13.33 7.723l-0.040 0.075zM579.482 124.006c-4.52 2.729-7.496 7.614-7.496 13.194 0 8.483 6.877 15.36 15.36 15.36s15.36-6.877 15.36-15.36c0-2.842-0.772-5.504-2.118-7.788l0.039 0.072c-2.71-4.604-7.641-7.644-13.281-7.644-2.903 0-5.617 0.805-7.933 2.204l0.069-0.039zM605.926 7.706c-1.095-0.532-2.383-0.843-3.743-0.843-4.821 0-8.73 3.908-8.73 8.73s3.908 8.73 8.73 8.73c3.464 0 6.457-2.018 7.867-4.942l0.023-0.052c0.53-1.094 0.84-2.379 0.84-3.736 0-3.461-2.014-6.452-4.935-7.864l-0.052-0.023zM754.944 820.966c-1.472 11.642-11.28 20.565-23.187 20.634l-433.031 1.562c-0.006 0-0.012 0-0.019 0-11.919 0-21.768-8.864-23.315-20.359l-0.013-0.121-3.635-28.365c-4.004-29.174-6.29-62.888-6.29-97.136 0-77.337 11.655-151.953 33.306-222.185l-1.416 5.336 60.749-208.41c3.591-13.164 5.654-28.279 5.654-43.876 0-0.964-0.008-1.926-0.024-2.886l0.002 0.145c-1.475-38.249-7.921-74.44-18.714-108.703l0.794 2.924-39.603-146.381c-0.678-2.301-1.068-4.945-1.068-7.68 0-15.552 12.608-28.16 28.16-28.16 0.006 0 0.013 0 0.019 0h-0.001l357.35-1.28c0.066-0.001 0.144-0.001 0.221-0.001 15.552 0 28.16 12.608 28.16 28.16 0 2.632-0.361 5.181-1.037 7.597l0.047-0.198-38.554 146.714c-9.832 31.449-16.070 67.74-17.289 105.299l-0.017 0.66c-0.002 0.3-0.003 0.654-0.003 1.009 0 16.031 2.178 31.554 6.255 46.288l-0.287-1.217 62.336 208.41c21.239 66.38 33.48 142.738 33.48 221.954 0 32.375-2.045 64.272-6.012 95.57l0.385-3.719zM711.091 484.582l-62.464-208.64c-4.262-15.145-6.713-32.537-6.713-50.502 0-0.507 0.002-1.013 0.006-1.518v0.078c1.236-39.986 7.699-77.987 18.728-113.992l-0.808 3.068 38.554-146.79c0.179-0.627 0.282-1.347 0.282-2.092 0-1.822-0.616-3.501-1.652-4.838l0.014 0.018c-1.484-1.908-3.781-3.123-6.361-3.123-0.005 0-0.010 0-0.015 0h0.001l-357.427 1.306c-0.026 0-0.056 0-0.086 0-4.383 0-7.936 3.553-7.936 7.936 0 0.822 0.125 1.615 0.357 2.361l-0.015-0.056 39.603 146.381c10.468 32.828 17.225 70.743 18.765 109.998l0.026 0.825c0.012 0.797 0.019 1.738 0.019 2.68 0 17.652-2.361 34.753-6.785 51.004l0.315-1.358-60.877 208.819c-19.687 63.173-31.027 135.807-31.027 211.090 0 33.336 2.224 66.152 6.531 98.309l-0.412-3.76 3.635 28.39c0.21 1.568 1.539 2.765 3.148 2.765 0.009 0 0.019 0 0.028 0h-0.001l432.998-1.587c1.602-0.026 2.916-1.225 3.121-2.774l0.002-0.016 3.43-28.416c3.472-26.801 5.454-57.801 5.454-89.263 0-77.179-11.925-151.574-34.034-221.44l1.418 5.193zM491.315 85.76l175.872 715.546 46.848-0.154-189.875-689.28zM949.734 825.19l-23.962-38.246-183.91 115.2-11.11-40.269-46.848 0.154 22.4 81.28c0 0.282 0.23 0.512 0.307 0.794 0.319 0.986 0.631 1.783 0.983 2.557l-0.061-0.151c0.337 0.769 0.653 1.391 1 1.994l-0.053-0.1c0.179 0.307 0.282 0.666 0.461 0.973s0.512 0.64 0.768 0.973 0.87 1.178 1.357 1.741 1.050 1.152 1.587 1.69 0.998 0.87 1.51 1.28c0.577 0.468 1.22 0.924 1.893 1.337l0.079 0.045c0.563 0.358 1.101 0.666 1.69 0.947 0.575 0.312 1.284 0.639 2.012 0.925l0.138 0.048c0.64 0.256 1.254 0.461 1.894 0.64s1.485 0.384 2.202 0.538 1.382 0.205 2.074 0.256 1.536 0 2.304 0h1.997c0.845 0 1.638-0.256 2.56-0.435 0.41-0.035 0.777-0.090 1.137-0.164l-0.062 0.011c0.307 0 0.563-0.256 0.87-0.358 0.887-0.281 1.616-0.567 2.322-0.895l-0.12 0.050c0.717-0.333 1.408-0.666 2.099-1.050 0.282-0.154 0.563-0.256 0.87-0.41z" />
<glyph unicode="&#xe909;" glyph-name="Arrow---Down" d="M16 647.36c0.001 11.289 4.656 21.491 12.151 28.792l0.009 0.008c7.555 7.358 17.888 11.895 29.28 11.895s21.725-4.538 29.289-11.904l-0.009 0.009 409.6-401.984 409.6 401.984c7.555 7.358 17.888 11.895 29.28 11.895s21.725-4.538 29.289-11.904l-0.009 0.009c7.519-7.302 12.185-17.506 12.185-28.8s-4.666-21.498-12.175-28.791l-0.010-0.009-438.592-430.72c-7.551-7.339-17.871-11.864-29.248-11.864s-21.697 4.525-29.258 11.874l0.010-0.010-438.592 430.72c-7.753 7.213-12.636 17.421-12.8 28.77v0.030zM0 647.36c0 0.013 0 0.028 0 0.044 0 15.74 6.493 29.962 16.947 40.136l0.013 0.012c10.445 10.171 24.73 16.443 40.48 16.443s30.035-6.273 40.493-16.456l-0.013 0.012 398.144-390.976 398.080 390.976c10.445 10.171 24.73 16.443 40.48 16.443s30.035-6.273 40.493-16.456l-0.013 0.012c10.428-10.16 16.896-24.341 16.896-40.032 0-0.034 0-0.068 0-0.101v0.005c0-0.021 0-0.045 0-0.069 0-15.7-6.468-29.889-16.884-40.048l-0.012-0.011-438.592-430.784c-10.455-10.123-24.723-16.362-40.448-16.362s-29.993 6.239-40.464 16.377l0.016-0.015-438.656 430.784c-10.459 10.159-16.951 24.352-16.96 40.062v0.002zM960 647.36c0 0.006 0 0.013 0 0.020 0 6.767-2.794 12.882-7.29 17.255l-0.006 0.005c-4.627 4.601-11.006 7.444-18.048 7.444s-13.421-2.844-18.049-7.446l0.001 0.001-420.48-412.992-11.2 11.008-409.6 401.984c-4.627 4.601-11.006 7.444-18.048 7.444s-13.421-2.844-18.049-7.446l0.001 0.001c-4.534-4.396-7.351-10.54-7.36-17.342v-0.002c0.012-6.783 2.829-12.906 7.353-17.273l0.007-0.007 438.592-430.72c4.668-4.511 11.033-7.291 18.048-7.291s13.38 2.78 18.055 7.298l-0.007-0.007 438.592 430.72c4.602 4.389 7.469 10.562 7.488 17.404v0.004z" />
<glyph unicode="&#xe90a;" d="M341.333 942.933c-179.001-0.213-324.053-145.265-324.267-324.246v-341.354c0.213-179.001 145.265-324.053 324.246-324.267h341.354c179.001 0.213 324.053 145.265 324.267 324.246v341.354c-0.213 179.001-145.265 324.053-324.246 324.267h-341.354zM341.333 960h341.333c188.513 0 341.333-152.82 341.333-341.333v0-341.333c0-188.513-152.82-341.333-341.333-341.333v0h-341.333c-188.513 0-341.333 152.82-341.333 341.333v0 341.333c0 188.513 152.82 341.333 341.333 341.333v0z" />
<glyph unicode="&#xe90b;" d="M221.867 430.933c-4.636 0-8.841 1.85-11.916 4.85l0.003-0.003c-3.18 3.103-5.152 7.431-5.152 12.22 0 4.636 1.849 8.84 4.849 11.916l-0.003-0.004 232.926 238.933c3.103 3.18 7.431 5.152 12.22 5.152 4.636 0 8.84-1.849 11.916-4.849l-0.004 0.003c3.18-3.103 5.152-7.431 5.152-12.22 0-4.636-1.849-8.84-4.849-11.916l0.003 0.004-232.926-238.933c-3.103-3.181-7.431-5.154-12.22-5.154v0z" />
<glyph unicode="&#xe90c;" d="M454.793 192c-4.789 0-9.117 1.973-12.216 5.151l-0.003 0.004-232.926 238.933c-2.997 3.072-4.845 7.276-4.845 11.913 0 4.789 1.972 9.117 5.149 12.216l0.003 0.003c3.072 2.997 7.276 4.845 11.913 4.845 4.789 0 9.117-1.972 12.216-5.149l0.003-0.003 232.926-238.933c2.997-3.072 4.845-7.276 4.845-11.913 0-9.425-7.64-17.066-17.065-17.067v0z" />
<glyph unicode="&#xe90d;" d="M802.133 430.933h-580.267c-9.426 0-17.067 7.641-17.067 17.067v0c0 9.426 7.641 17.067 17.067 17.067v0h580.267c9.426 0 17.067-7.641 17.067-17.067v0c0-9.426-7.641-17.067-17.067-17.067v0z" />
<glyph unicode="&#xe90e;" d="M341.333 960h341.333c188.513 0 341.333-152.82 341.333-341.333v-341.333c0-188.513-152.82-341.333-341.333-341.333h-341.333c-188.513 0-341.333 152.82-341.333 341.333v341.333c0 188.513 152.82 341.333 341.333 341.333z" />
<glyph unicode="&#xe90f;" d="M341.333 942.933c-179.001-0.213-324.053-145.265-324.267-324.246v-341.354c0.213-179.001 145.265-324.053 324.246-324.267h341.354c179.001 0.213 324.053 145.265 324.267 324.246v341.354c-0.213 179.001-145.265 324.053-324.246 324.267h-341.354zM341.333 960h341.333c188.513 0 341.333-152.82 341.333-341.333v0-341.333c0-188.513-152.82-341.333-341.333-341.333v0h-341.333c-188.513 0-341.333 152.82-341.333 341.333v0 341.333c0 188.513 152.82 341.333 341.333 341.333v0z" />
<glyph unicode="&#xe910;" d="M221.867 430.933c-4.636 0-8.841 1.85-11.916 4.85l0.003-0.003c-3.18 3.103-5.152 7.431-5.152 12.22 0 4.636 1.849 8.84 4.849 11.916l-0.003-0.004 232.926 238.933c3.103 3.18 7.431 5.152 12.22 5.152 4.636 0 8.84-1.849 11.916-4.849l-0.004 0.003c3.18-3.103 5.152-7.431 5.152-12.22 0-4.636-1.849-8.84-4.849-11.916l0.003 0.004-232.926-238.933c-3.103-3.181-7.431-5.154-12.22-5.154v0z" />
<glyph unicode="&#xe911;" d="M454.793 192c-4.789 0-9.117 1.973-12.216 5.151l-0.003 0.004-232.926 238.933c-2.997 3.072-4.845 7.276-4.845 11.913 0 4.789 1.972 9.117 5.149 12.216l0.003 0.003c3.072 2.997 7.276 4.845 11.913 4.845 4.789 0 9.117-1.972 12.216-5.149l0.003-0.003 232.926-238.933c2.997-3.072 4.845-7.276 4.845-11.913 0-9.425-7.64-17.066-17.065-17.067v0z" />
<glyph unicode="&#xe912;" d="M802.133 430.933h-580.267c-9.426 0-17.067 7.641-17.067 17.067v0c0 9.426 7.641 17.067 17.067 17.067v0h580.267c9.426 0 17.067-7.641 17.067-17.067v0c0-9.426-7.641-17.067-17.067-17.067v0z" />
<glyph unicode="&#xe913;" d="M341.333 960h341.333c188.513 0 341.333-152.82 341.333-341.333v-341.333c0-188.513-152.82-341.333-341.333-341.333h-341.333c-188.513 0-341.333 152.82-341.333 341.333v341.333c0 188.513 152.82 341.333 341.333 341.333z" />
<glyph unicode="&#xe914;" d="M221.867 430.933c-4.636 0-8.841 1.85-11.916 4.85l0.003-0.003c-3.18 3.103-5.152 7.431-5.152 12.22 0 4.636 1.849 8.84 4.849 11.916l-0.003-0.004 232.926 238.933c3.103 3.18 7.431 5.152 12.22 5.152 4.636 0 8.84-1.849 11.916-4.849l-0.004 0.003c3.18-3.103 5.152-7.431 5.152-12.22 0-4.636-1.849-8.84-4.849-11.916l0.003 0.004-232.926-238.933c-3.103-3.181-7.431-5.154-12.22-5.154v0z" />
<glyph unicode="&#xe915;" d="M454.793 192c-4.789 0-9.117 1.973-12.216 5.151l-0.003 0.004-232.926 238.933c-2.997 3.072-4.845 7.276-4.845 11.913 0 4.789 1.972 9.117 5.149 12.216l0.003 0.003c3.072 2.997 7.276 4.845 11.913 4.845 4.789 0 9.117-1.972 12.216-5.149l0.003-0.003 232.926-238.933c2.997-3.072 4.845-7.276 4.845-11.913 0-9.425-7.64-17.066-17.065-17.067v0z" />
<glyph unicode="&#xe916;" d="M802.133 430.933h-580.267c-9.426 0-17.067 7.641-17.067 17.067v0c0 9.426 7.641 17.067 17.067 17.067v0h580.267c9.426 0 17.067-7.641 17.067-17.067v0c0-9.426-7.641-17.067-17.067-17.067v0z" />
<glyph unicode="&#xe917;" glyph-name="Chatbot---Light-icon-1" d="M199.111 760.889h625.778c109.966 0 199.111-89.145 199.111-199.111v0-341.333c0-109.966-89.145-199.111-199.111-199.111v0h-625.778c-109.966 0-199.111 89.145-199.111 199.111v0 341.333c0 109.966 89.145 199.111 199.111 199.111v0zM824.889 78.222c78.547 0 142.222 63.675 142.222 142.222v0 341.333c0 78.547-63.675 142.222-142.222 142.222v0h-625.778c-78.547 0-142.222-63.675-142.222-142.222v0-341.333c0-78.547 63.675-142.222 142.222-142.222v0zM512 704c-15.709 0-28.444 12.735-28.444 28.444v0 142.222c0 15.709 12.735 28.444 28.444 28.444v0c15.709 0 28.444-12.735 28.444-28.444v0-142.222c0-15.709-12.735-28.444-28.444-28.444v0z" />
<glyph unicode="&#xe918;" d="M512 960c-282.653-0.291-511.709-229.347-512-511.972v-0.028c0.291-282.653 229.347-511.709 511.972-512h0.028c282.629 0.349 511.65 229.37 512 511.966v0.034c-0.349 282.629-229.37 511.65-511.966 512h-0.034z" />
<glyph unicode="&#xe919;" d="M452.25 294.4c-0.004 0-0.009 0-0.013 0-7.359 0-13.992 3.105-18.662 8.076l-0.013 0.014-119.45 127.59c-4.022 4.502-6.48 10.475-6.48 17.023 0 14.138 11.462 25.6 25.6 25.6 7.146 0 13.608-2.928 18.252-7.65l0.003-0.003 100.71-107.52 220.262 235.93c4.653 4.763 11.14 7.716 18.317 7.716 14.138 0 25.6-11.462 25.6-25.6 0-6.553-2.462-12.531-6.512-17.059l0.022 0.025-238.95-256c-4.678-5.007-11.317-8.131-18.686-8.141h-0.002z" />
<glyph unicode="&#xe91a;" d="M512 960c-282.653-0.291-511.709-229.347-512-511.972v-0.028c0.291-282.653 229.347-511.709 511.972-512h0.028c282.629 0.349 511.65 229.37 512 511.966v0.034c-0.349 282.629-229.37 511.65-511.966 512h-0.034z" />
<glyph unicode="&#xe91b;" d="M719.923 546.355l-245.146-245.248c-6.187-6.138-14.708-9.931-24.115-9.933v0c-0.024 0-0.051 0-0.079 0-9.382 0-17.878 3.795-24.037 9.934l0.001-0.001-122.88 122.573c-6.185 6.165-10.012 14.693-10.012 24.115s3.827 17.95 10.011 24.114l0.001 0.001c6.16 6.155 14.668 9.961 24.064 9.961s17.904-3.806 24.064-9.961v0l98.304-98.304 221.184 221.184c6.169 6.158 14.684 9.965 24.090 9.965s17.921-3.808 24.090-9.966l-0.001 0.001c6.216-6.17 10.064-14.719 10.064-24.167 0-9.295-3.724-17.719-9.762-23.863l0.005 0.005-0.358-0.307z" />
<glyph unicode="&#xe91c;" d="M307.2 960h409.6c169.662 0 307.2-137.538 307.2-307.2v-409.6c0-169.662-137.538-307.2-307.2-307.2h-409.6c-169.662 0-307.2 137.538-307.2 307.2v409.6c0 169.662 137.538 307.2 307.2 307.2z" />
<glyph unicode="&#xe91d;" d="M547.983 348.221c-5.632 0.512-11.264 1.311-16.916 1.495-2.747 0.175-5.956 0.274-9.189 0.274-10.516 0-20.787-1.054-30.711-3.063l0.988 0.167c-1.004-0.225-2.519-0.676-2.826 0.778s0.594 2.335 2.048 2.642c4.224 1.19 9.433 2.258 14.751 2.981l0.629 0.070c5.753 0.612 12.427 0.961 19.182 0.961 8.929 0 17.715-0.61 26.32-1.79l-0.999 0.112c1.096-0.204 2.357-0.321 3.645-0.321 5.037 0 9.658 1.783 13.266 4.752l-0.036-0.029c14.174 10.961 25.798 24.474 34.337 39.929l0.336 0.663c7.561 14.432 13.069 31.214 15.591 48.957l0.097 0.83c0.614 3.748 0.266 7.578 0.942 11.407 0.43 2.478 0.676 3.052 3.4 3.4 6.155 1.45 13.222 2.282 20.483 2.282 0.438 0 0.876-0.003 1.313-0.009l-0.066 0.001c0.303 0.010 0.66 0.016 1.017 0.016 12.769 0 23.796-7.458 28.964-18.255l0.083-0.193c1.95-3.954 3.091-8.608 3.091-13.529 0-14.207-9.51-26.192-22.512-29.937l-0.22-0.054c-4.343-1.263-9.332-1.99-14.491-1.99-6.046 0-11.859 0.998-17.284 2.839l0.379-0.112c-3.768 1.249-5.366 0.43-6.492-3.379-4.729-16.229-12.008-30.361-21.484-42.72l0.225 0.306c-11.765-15.559-27.119-27.804-44.865-35.617l-0.724-0.284c-1.437-0.505-3.093-0.796-4.817-0.796-0.467 0-0.929 0.021-1.385 0.063l0.059-0.004c-19.927 0-39.895 0.512-59.802-0.225-0.328-0.008-0.715-0.012-1.103-0.012-10.642 0-20.502 3.347-28.585 9.046l0.157-0.105c-13.423 8.717-24.626 19.639-33.39 32.371l-0.258 0.397c-9.075 13.037-15.892 28.385-19.487 44.934l-0.153 0.839c-2.062 9.013-3.243 19.364-3.243 29.99 0 10.319 1.114 20.378 3.229 30.063l-0.17-0.927c0.266 1.249 0.676 2.458 1.004 3.666 0.635 2.232 2.54 2.273 4.26 2.232 2.396 0 1.434-2.15 1.434-3.256 0-0.045 0-0.098 0-0.151 0-17.872 2.098-35.254 6.060-51.913l-0.305 1.519c3.798-18.587 10.255-35.090 19.049-50.055l-0.413 0.759c4.112-7.623 9.836-13.891 16.752-18.52l0.185-0.117c-2.826 5.55-5.714 11.059-8.499 16.63-9.844 19.953-17.039 43.119-20.35 67.519l-0.13 1.171c-0.579 4.753-0.91 10.256-0.91 15.836 0 1.302 0.018 2.6 0.054 3.893l-0.004-0.191c0 9.196 4.997 13.66 14.111 11.837 19.061-3.609 41.374-6.017 64.124-6.682l0.634-0.015c11.305-0.553 22.528-0.963 33.894-0.553 0.462-0.004 1.007-0.007 1.553-0.007 15.868 0 31.262 2.034 45.933 5.857l-1.263-0.279c0.692 0.129 1.303 0.313 1.884 0.555l-0.061-0.023c2.335 1.29 5.386 2.355 5.407 5.468s-3.011 3.953-5.325 4.772c-2.862 1.378-6.223 2.184-9.772 2.184-4.388 0-8.489-1.231-11.976-3.367l0.1 0.057c-9.465-5.292-20.631-8.743-32.519-9.571l-0.249-0.014c-9.162-1.269-19.748-1.993-30.503-1.993-1.653 0-3.302 0.017-4.948 0.051l0.246-0.004c-17.106 0.214-33.701 1.517-49.966 3.844l2.043-0.24c-3.81 0.773-7.172 2.303-10.064 4.432l0.070-0.049c-1.279 0.814-2.115 2.225-2.115 3.831 0 1.466 0.697 2.768 1.777 3.596l0.011 0.008c4.59 3.885 10.543 6.288 17.054 6.41h0.026c11.82 1.699 25.784 2.842 39.949 3.167l0.417 0.008c9.871 0.389 19.743 0.84 29.594 0.614 8.581-0.184 17.121-1.085 25.682-1.597 2.703-0.164 5.407 0 8.192 0 0.056-0.004 0.122-0.006 0.189-0.006 1.457 0 2.687 0.969 3.082 2.297l0.006 0.023c0.41 1.434-1.352 1.516-2.15 2.048-8.178 4.797-17.879 7.915-28.241 8.631l-0.205 0.011c-18.616 3.113-37.54 4.424-55.931 8.868-8.627 0.773-15.936 5.776-19.902 12.897l-0.066 0.129c-0.881 3.066-1.388 6.588-1.388 10.228 0 1.447 0.080 2.876 0.236 4.281l-0.016-0.173c0 2.048 2.253 3.748 4.26 5.284 12.865 9.136 28.136 15.82 44.653 19.011l0.731 0.118c13.184 3.289 29.025 5.938 45.207 7.403l1.262 0.092c2.908 0.266 5.038-0.164 4.669-3.994 0.002-0.037 0.003-0.080 0.003-0.124 0-1.572-1.275-2.847-2.847-2.847-0.023 0-0.045 0-0.067 0.001h0.003c-6.758-0.86-13.517-1.884-20.275-2.683-20.742-2.45-39.599-8.49-56.642-17.502l0.875 0.422c-4.906-2.189-8.264-7.024-8.264-12.643 0-0.495 0.026-0.984 0.077-1.466l-0.005 0.060c0.614-6.144 5.612-9.093 10.752-10.875 13.837-4.178 30.053-7.289 46.748-8.723l0.909-0.063c12.923-0.756 25.022-3.113 36.48-6.882l-1.008 0.287c6.39-2.621 11.94-6.308 12.288-14.336 0-2.048 1.556-2.048 2.949-2.355 4.524-0.52 8.618-1.406 12.554-2.647l-0.471 0.128c1.167-0.471 2.437-0.737 3.584-1.29 4.588-2.15 9.585-4.915 9.482-10.24 0-5.693-5.018-8.991-10.056-11.080-7.564-2.894-16.31-4.739-25.434-5.115l-0.166-0.005c-13.402-1.307-28.972-2.053-44.717-2.053-4.231 0-8.45 0.054-12.655 0.161l0.622-0.013c-22.203 0.117-43.872 2.019-64.982 5.57l2.354-0.327c-0.382 0.044-0.825 0.069-1.273 0.069-5.593 0-10.281-3.872-11.531-9.081l-0.016-0.081c-0.672-3.348-1.057-7.198-1.057-11.137 0-6.448 1.031-12.655 2.937-18.465l-0.119 0.418c6.985-24.946 17.408-46.757 30.928-66.258l-0.474 0.722c5.002-6.419 12.474-10.711 20.963-11.441l0.111-0.008c9.266-1.999 19.91-3.143 30.822-3.143 2.846 0 5.673 0.078 8.48 0.231l-0.39-0.017c9.775 0.392 18.88 2.899 26.986 7.071l-0.362-0.169zM632.381 460.616c-2.703 0-5.366-0.307-8.049-0.655-3.133-0.41-3.441-1.536-3.031-4.219 0.614-4.096 0.922-8.192 1.126-12.288 0.068-1.625 0.106-3.531 0.106-5.447 0-8.306-0.724-16.443-2.112-24.352l0.122 0.84c-0.41-2.642-1.946-5.96-0.881-7.782 1.311-2.273 5.161-1.7 7.946-2.048 1.682-0.357 3.614-0.561 5.594-0.561 8.906 0 16.846 4.131 22.011 10.581l0.043 0.056c3.75 4.852 6.011 11.022 6.011 17.72 0 4.387-0.97 8.547-2.707 12.278l0.075-0.179c-3.948 9.576-13.21 16.194-24.017 16.194-0.788 0-1.567-0.035-2.337-0.104l0.099 0.007zM551.977 481.812c-9.847 1.535-21.203 2.411-32.765 2.411-0.916 0-1.83-0.006-2.743-0.016l0.139 0.001c-4.316 0.162-9.386 0.254-14.477 0.254-14.715 0-29.251-0.769-43.569-2.269l1.788 0.152c-4.883-0.148-9.493-1.135-13.751-2.82l0.275 0.096c-2.396-1.044-2.662-2.253-0.389-3.584 2.825-1.771 6.219-2.897 9.86-3.090l0.052-0.002c5.878-0.225 11.735-0.758 17.613-1.147 5.88-0.526 12.719-0.827 19.628-0.827 15.718 0 31.074 1.553 45.922 4.515l-1.488-0.248c5.51 0.365 10.386 2.816 13.895 6.563l0.011 0.012z" />
<glyph unicode="&#xe91e;" d="M399.831 232.448c-6.144-5.509-12.288-11.039-18.555-16.507-2.114-2.305-4.782-4.068-7.794-5.082l-0.131-0.038c-0.619-0.147-1.33-0.232-2.061-0.232-5.124 0-9.277 4.154-9.277 9.277 0 1.226 0.238 2.397 0.67 3.469l-0.022-0.062c2.499 8.581 5.673 16.957 8.561 25.436 0.246 0.737 0.778 1.413 0 2.54-3.989-4.753-7.725-10.034-11.008-15.613l-0.297-0.545c-1.874-3-3.676-5.545-5.606-7.984l0.138 0.181c-1.196-1.741-3.176-2.868-5.419-2.868-1.644 0-3.146 0.605-4.297 1.605l0.008-0.007c-2.030 1.070-3.39 3.166-3.39 5.58 0 1.471 0.505 2.824 1.352 3.895l-0.010-0.013c9.216 14.684 18.575 29.286 28.774 43.315 3.277 4.506 6.246 4.751 11.162 2.048 0.963-0.553 1.884-1.188 2.826-1.782 6.758-4.342 7.414-6.001 4.874-13.824-2.785-8.602-5.837-17.121-8.54-25.764-0.655-2.048-2.458-4.096-1.29-6.554h-0.696l0.164-0.614 0.471 0.655c8.192 6.267 15.401 13.722 23.245 20.48 1.802 1.536 3.707 2.99 5.632 4.403 1.267 1.012 2.891 1.624 4.659 1.624s3.393-0.612 4.674-1.636l-0.015 0.012c1.454-0.963 2.99-1.843 4.424-2.826 5.181-3.523 6.144-6.799 2.806-12.124-9.093-14.193-18.432-28.242-27.853-42.209-1.26-2.080-3.511-3.449-6.081-3.449-1.653 0-3.173 0.566-4.379 1.514l0.015-0.012c-2.030 1.113-3.384 3.236-3.384 5.675 0 1.644 0.615 3.145 1.628 4.285l-0.006-0.007c4.772 7.864 9.81 15.565 14.746 23.327 1.29 0.553 0.942 1.475 0.573 2.417l0.717-0.41 0.164 0.471-0.84-0.123-1.29-1.925zM415.416 609.792c0.341-0.013 0.742-0.020 1.144-0.020 17.723 0 32.159 14.070 32.749 31.648l0.001 0.054c0.007 0.279 0.012 0.607 0.012 0.936 0 19.424-14.824 35.385-33.776 37.186l-0.15 0.012c-0.393 0.017-0.853 0.026-1.316 0.026-17.638 0-32.022-13.936-32.74-31.398l-0.002-0.065c-0.014-0.381-0.022-0.828-0.022-1.277 0-19.468 14.941-35.446 33.982-37.093l0.139-0.010zM423.936 627.302c-1.965-1.193-4.34-1.899-6.881-1.899-3.713 0-7.074 1.509-9.503 3.947v0c-5.198 4.933-8.561 11.754-8.987 19.36l-0.003 0.076c-0.046 0.404-0.072 0.872-0.072 1.346 0 5.25 3.186 9.756 7.73 11.689l0.083 0.031c2.027 1.245 4.483 1.983 7.111 1.983 3.579 0 6.838-1.368 9.284-3.61l-0.010 0.009c5.152-4.742 8.596-11.269 9.349-18.593l0.010-0.125c0.069-0.516 0.108-1.112 0.108-1.718 0-5.622-3.376-10.456-8.212-12.584l-0.088-0.035zM545.546 201.462c-0.532-0.41-0.655 0.164-0.799 0.553-3.727 4.915-7.393 9.892-11.203 14.746-4.195 6.448-8.674 12.066-13.634 17.219l0.035-0.036c-1.806 1.729-4.261 2.794-6.964 2.794-1.682 0-3.268-0.412-4.662-1.141l0.056 0.026c-2.494-1.33-4.162-3.915-4.162-6.889 0-0.57 0.061-1.126 0.178-1.662l-0.009 0.051q2.048-24.781 4.403-49.5c-0.006-0.107-0.009-0.232-0.009-0.359 0-3.744 3.035-6.779 6.779-6.779 0.394 0 0.78 0.034 1.156 0.098l-0.040-0.006c5.509 0.184 8.008 3.338 7.496 9.851-0.737 9.38-1.618 18.76-2.437 28.14 2.298-1.885 4.273-4.043 5.913-6.448l0.068-0.105c5.652-7.68 11.244-15.421 16.957-23.060 1.985-3.225 5.496-5.342 9.502-5.342 1.545 0 3.017 0.315 4.354 0.885l-0.073-0.028c5.448 2.232 4.649 6.984 4.526 11.407 0 2.212-0.451 4.424-0.655 6.656-1.126 12.698-2.171 25.416-3.359 38.093-0.369 4.096-0.983 8.192-6.042 9.052-0.7 0.241-1.507 0.38-2.346 0.38-4.106 0-7.434-3.328-7.434-7.434 0-0.497 0.049-0.982 0.142-1.451l-0.008 0.047c0.512-9.523 1.434-19.005 2.191-28.508 0-0.43 0.266-1.085 0-1.229zM697.119 589.005c-4.321 4.465-8.561 9.011-13.046 13.292-2.048 2.048-2.437 3.502 0 5.202 2.048 1.372 3.256 5.038 6.636 1.106 4.669-5.427 9.871-10.383 15.012-15.36 1.408-1.703 3.521-2.78 5.885-2.78 2.029 0 3.874 0.794 5.239 2.087l-0.003-0.003c1.53 1.304 2.493 3.233 2.493 5.387 0 2.256-1.057 4.265-2.703 5.559l-0.015 0.012q-11.407 12.288-23.368 23.9c-1.419 1.798-3.598 2.942-6.044 2.942-2.169 0-4.128-0.899-5.525-2.346l-0.002-0.002c-12.718-10.957-24.781-22.63-36.495-34.652-1.863-1.313-3.065-3.455-3.065-5.878s1.202-4.565 3.043-5.863l0.023-0.015q11.919-12.698 24.412-24.842c1.366-1.827 3.524-2.997 5.954-2.997 2.331 0 4.41 1.076 5.77 2.758l0.011 0.014c3.174 3.359 2.97 7.066-1.004 11.387s-8.622 8.929-12.964 13.353c-5.284 5.386-5.14 5.222 0.369 10.711 2.294 2.294 3.523 2.56 5.816 0 4.239-4.731 8.827-9.155 13.414-13.558 1.314-1.514 3.242-2.466 5.391-2.466 1.219 0 2.367 0.306 3.371 0.846l-0.038-0.019c2.547 1.251 4.269 3.827 4.269 6.804 0 0.236-0.011 0.47-0.032 0.7l0.002-0.030c-0.347 1.962-1.369 3.64-2.812 4.822l-0.014 0.011zM641.085 637.399c-5.366 3.113-10.67 6.328-16.2 9.155-2.826 1.434-2.97 2.949-1.126 4.997 1.413 1.597 1.331 5.612 5.489 2.97 6.042-3.83 12.288-7.25 18.657-10.629 5.1-2.744 9.441-1.72 11.612 2.396s0.737 7.762-4.198 10.629c-8.663 5.038-17.367 10.035-26.153 14.848-7.885 4.321-10.793 3.625-15.647-4.219-6.144-10.015-12.022-20.255-17.981-30.413-2.096-3.109-4.081-6.679-5.756-10.418l-0.183-0.457c-0.514-0.98-0.816-2.14-0.816-3.372 0-2.828 1.593-5.285 3.93-6.521l0.040-0.019c10.445-6.144 20.931-12.124 31.58-17.859 1.141-0.772 2.548-1.232 4.062-1.232 2.885 0 5.379 1.671 6.569 4.097l0.019 0.043c0.735 1.097 1.172 2.446 1.172 3.898 0 2.944-1.801 5.468-4.361 6.53l-0.047 0.017c-5.386 3.359-10.977 6.431-16.384 9.585-7.025 4.096-6.922 3.932-2.724 11.121 1.352 2.314 2.294 2.765 4.69 1.311 5.571-3.379 11.284-6.595 17.080-9.544 1.157-0.759 2.574-1.211 4.097-1.211 4.162 0 7.537 3.374 7.537 7.537 0 0.037 0 0.074-0.001 0.11v-0.006c-0.438 2.953-2.295 5.392-4.843 6.633l-0.052 0.023zM379.392 583.066c1.634 3.312 2.59 7.211 2.59 11.333 0 2.26-0.287 4.452-0.827 6.543l0.040-0.181c-1.741 6.144-6.144 9.339-11.039 7.926s-7.25-6.144-5.734-12.288c0.251-0.963 0.395-2.069 0.395-3.209 0-7.307-5.923-13.23-13.23-13.23-1.263 0-2.485 0.177-3.642 0.508l0.093-0.023c-8.702 2.391-15.491 8.909-18.216 17.263l-0.053 0.186c-0.341 1.1-0.537 2.364-0.537 3.674 0 7.092 5.749 12.841 12.841 12.841 0.645 0 1.278-0.047 1.897-0.139l-0.070 0.009c1.094-0.215 2.351-0.339 3.638-0.339 0.392 0 0.781 0.011 1.167 0.034l-0.053-0.002c4.186 0.109 7.651 3.070 8.529 7.006l0.011 0.060c0.097 0.47 0.153 1.009 0.153 1.562 0 3.498-2.226 6.477-5.339 7.596l-0.056 0.018c-2.002 1.037-4.364 1.661-6.869 1.7h-0.012c-17.3-0.593-31.285-14.018-32.759-31.023l-0.009-0.127c1.792-20.059 17.558-35.931 37.409-37.874l0.171-0.014c13.158 0.621 24.301 8.647 29.405 19.979l0.086 0.214zM625.336 249.426c3.297-13.599 6.533-27.218 9.953-40.796 0.399-3.627 3.447-6.424 7.148-6.424 0.708 0 1.391 0.102 2.037 0.293l-0.051-0.013c3.549 0.8 6.161 3.926 6.161 7.661 0 0.795-0.118 1.563-0.338 2.286l0.015-0.056c-0.193 1.2-0.507 2.274-0.936 3.287l0.035-0.092c-0.56 0.785-0.896 1.765-0.896 2.822 0 2.235 1.498 4.12 3.544 4.706l0.035 0.008c3.384 1.526 6.299 3.398 8.895 5.631l-0.048-0.040c4.342 3.932 7.66 3.031 11.633-0.614 1.442-1.74 3.603-2.841 6.022-2.841 2.644 0 4.982 1.315 6.393 3.328l0.017 0.025c2.949 3.707 2.048 7.373-2.847 11.284-0.614 0.492-1.229 1.024-1.864 1.495q-13.414 9.933-26.849 19.845c-4.854 3.564-9.728 7.127-14.643 10.609-1.29 0.823-2.862 1.312-4.549 1.312-2.19 0-4.187-0.824-5.699-2.18l0.008 0.007c-3.641-1.56-6.145-5.113-6.145-9.25 0-0.038 0-0.077 0.001-0.115v0.006c0.799-3.461 1.802-7.803 2.847-12.124zM644.833 235.151c-2.99 0.84-2.478 6.922-3.707 10.629-0.697 1.889-1.1 4.071-1.1 6.347 0 0.404 0.013 0.805 0.038 1.203l-0.003-0.054 15.421-12.083c-3.85-2.273-7.455-6.922-10.65-6.021zM480.543 189.665c-1.27 14.336-2.56 28.877-3.768 43.315-0.022 4.52-3.259 8.277-7.539 9.104l-0.059 0.009c-4.526 1.208-8.888 2.048-12.042-2.499-10.465-14.807-20.91-29.614-31.191-44.544-1.009-1.15-1.625-2.666-1.625-4.327 0-2.402 1.289-4.504 3.212-5.651l0.030-0.017c1.256-1.151 2.936-1.857 4.782-1.857 2.564 0 4.811 1.362 6.055 3.403l0.018 0.031c3.625 8.356 9.257 7.27 15.729 4.813 0.481-0.16 1.1-0.323 1.731-0.452l0.112-0.019c8.479-2.191 8.479-2.191 9.728-10.752 0.085-4.221 3.527-7.611 7.76-7.611 0.471 0 0.932 0.042 1.38 0.122l-0.047-0.007c4.096 0.328 6.431 3.277 6.513 8.417-0.266 2.847-0.553 5.714-0.799 8.561zM457.994 215.982c1.454 2.171 2.949 4.321 5.1 7.455l1.29-20.664c-13.578 2.458-13.599 2.458-6.39 13.21zM470.036 638.464c-0.019-0.205-0.030-0.443-0.030-0.683 0-4.298 3.484-7.782 7.782-7.782 0.54 0 1.067 0.055 1.575 0.16l-0.050-0.009c5.407 0.348 8.192 3.809 7.7 9.851-0.328 4.772-0.471 9.544-1.044 14.336-0.348 2.847 0.635 3.584 3.277 3.666q8.192 0.266 16.22 1.065c5.591 0.532 8.97 4.219 7.434 8.745-0.935 3.571-4.133 6.163-7.937 6.163-0.198 0-0.394-0.007-0.588-0.021l0.026 0.001c-5.407-0.307-10.813-0.717-16.22-0.983-1.167 0-2.54-0.696-3.482 0.676-0.603 0.914-0.962 2.035-0.962 3.24 0 2.969 2.179 5.429 5.024 5.869l0.033 0.004c5.714 0.389 11.448 0.696 17.162 1.126 1.52 0.15 2.91 0.439 4.243 0.859l-0.147-0.040c2.946 0.599 5.132 3.168 5.132 6.248 0 0.288-0.019 0.572-0.056 0.85l0.004-0.033c0.004 0.081 0.006 0.176 0.006 0.272 0 3.446-2.635 6.277-6.001 6.587l-0.026 0.002c-0.854 0.101-1.844 0.158-2.847 0.158s-1.992-0.057-2.965-0.169l0.119 0.011c-7.004-0.451-13.967-1.106-20.972-1.454-15.278-0.758-16.609-2.15-15.647-17.347 1.024-13.824 2.048-27.648 3.113-41.452zM577.475 655.114c0.89 1.185 1.425 2.681 1.425 4.302 0 3.595-2.632 6.576-6.074 7.12l-0.041 0.005c-5.55 1.372-11.244 2.048-16.896 3.072-2.601 0.43-3.379 1.29-3.072 4.342 0.512 4.997 2.294 6.717 7.086 5.018 0.667-0.214 1.458-0.386 2.271-0.485l0.064-0.006c5.489-0.901 10.957-2.048 16.486-2.56 0.427-0.098 0.918-0.154 1.422-0.154 3.391 0 6.19 2.536 6.603 5.814l0.003 0.033c0.17 0.563 0.267 1.209 0.267 1.879 0 3.206-2.24 5.89-5.24 6.571l-0.045 0.009c-1.404 0.469-3.121 0.896-4.881 1.198l-0.219 0.031c-8.458 1.475-16.937 2.867-25.395 4.362s-11.776-0.594-13.373-9.175c-2.847-15.34-5.55-30.72-8.192-46.039-0.115-0.525-0.181-1.128-0.181-1.746 0-4.705 3.814-8.52 8.52-8.52 4.281 0 7.825 3.158 8.429 7.271l0.006 0.046c0.923 3.729 1.806 8.513 2.442 13.374l0.077 0.716c0.369 3.604 2.048 3.912 4.977 3.318 5.304-1.065 10.65-1.905 15.053-2.662 4.874-0.184 7.004 0.655 8.499 2.908zM609.239 195.809c-5.571 15.852-11.1 31.724-16.773 47.555-0.666 3.373-3.6 5.881-7.12 5.881-1.024 0-1.998-0.212-2.881-0.595l0.047 0.018c-5.079-1.823-6.615-4.977-4.731-10.547 4.096-11.858 8.192-23.675 12.288-35.492 1.577-4.465 3.092-8.991 5.018-13.312 0.875-2.396 3.134-4.075 5.785-4.075 0.87 0 1.697 0.181 2.447 0.506l-0.040-0.015c3.58 0.524 6.298 3.574 6.298 7.259 0 0.141-0.004 0.281-0.012 0.42l0.001-0.019c-0.11 0.905-0.283 1.717-0.519 2.501l0.027-0.105z" />
<glyph unicode="&#xe91f;" d="M869.315 530.862c-2.56 4.547-1.393 10.035-4.383 14.746-2.648 4.783-5.459 10.692-7.945 16.769l-0.431 1.192c-1.147 2.376-2.273 5.407-5.12 5.919s-3.338 2.253-3.256 4.649c0.089 0.786 0.14 1.698 0.14 2.621s-0.051 1.835-0.15 2.732l0.010-0.111c-0.86 4.731-0.389 9.994-4.69 13.455-2.456 1.947-4.069 4.864-4.258 8.162l-0.001 0.030c0.007 0.148 0.012 0.32 0.012 0.494 0 3.112-1.353 5.909-3.504 7.832l-0.010 0.009c-1.603 1.634-3.053 3.429-4.321 5.355l-0.083 0.134c0.005 0.092 0.008 0.199 0.008 0.307 0 1.852-0.872 3.501-2.228 4.558l-0.013 0.010c0 0.471-0.102 0.737-0.635 0.696-5.405 10.689-12.892 19.597-21.991 26.487l-0.188 0.137c-2.362 1.394-4.284 3.302-5.653 5.58l-0.040 0.072c-8.007 10.874-16.544 20.451-25.889 29.175l-0.121 0.111c-10.813 13.005-26.481 21.053-36.864 34.591-0.396 0.495-0.888 0.895-1.45 1.177l-0.025 0.011c-5.165 2.827-8.992 7.556-10.572 13.221l-0.036 0.152c-1.079 4.534-4.962 7.903-9.678 8.191l-0.030 0.001c-11.357 1.061-21.703 4.586-30.761 10.034l0.328-0.183c-3.297 2.048-7.885 2.273-10.957 4.567-8.111 4.534-17.503 8.217-27.413 10.562l-0.747 0.149c-1.163 0.745-2.581 1.188-4.103 1.188-2.688 0-5.054-1.381-6.426-3.473l-0.018-0.029c-1.167-1.843-3.584-1.249-5.448 0.184-3.989 2.966-8.633 5.343-13.645 6.878l-0.323 0.085c-9.13 2.157-17.16 5.224-24.635 9.196l0.551-0.267c-9.91 6.807-21.402 12.276-33.719 15.792l-0.831 0.203c-9.389 3.864-20.424 7.083-31.865 9.128l-1.005 0.149c-0.059 0.12-0.094 0.261-0.094 0.41s0.035 0.29 0.096 0.415l-0.002-0.006h-19.046l0.225-0.963c-5.060-1.758-10.893-2.774-16.962-2.774-0.812 0-1.62 0.018-2.424 0.054l0.114-0.004c-0.535 0.013-1.164 0.020-1.796 0.020-6.409 0-12.641-0.754-18.614-2.178l0.544 0.109c-8.108-2.477-17.751-4.485-27.656-5.639l-0.791-0.075c-8.142-0.923-15.543-2.594-22.617-4.975l0.765 0.223c-7.066-2.744-14.029-5.755-20.91-8.909-6.269-1.645-11.717-3.745-16.857-6.362l0.473 0.218c-8.97-7.045-20.091-9.462-29.43-16.056s-20.603-11.469-30.72-17.838c-11.251-6.63-20.993-13.875-29.886-22.030l0.129 0.117c-2-2.411-4.741-4.146-7.871-4.856l-0.096-0.018c-4.096-0.573-3.461-5.775-5.796-6.963-2.806-1.413-7.004-0.901-8.499-4.301s-6.001-5.407-5.919-9.994c0-1.085-1.27-1.27-2.253-1.311-3.707-0.184-5.325-2.99-7.188-5.591-2.662-3.666-3.174-9.114-8.827-10.383-0.901-0.205-1.556-1.905-2.171-2.99-1.039-1.562-2.036-2.897-3.097-4.177l0.065 0.081c-4.579-4.753-8.982-9.798-13.13-15.055l-0.326-0.428c-1.915-1.153-3.285-3.047-3.719-5.275l-0.008-0.050c-2.623-6.862-6.079-12.789-10.336-18.042l0.096 0.122c-4.911-6.527-9.537-13.903-13.523-21.663l-0.404-0.865c-1.495-2.806-5.038-4.321-5.448-7.68-1.709-9.856-5.837-18.538-11.748-25.692l0.074 0.092c-0.635-0.86-1.331-1.659-0.492-2.417 2.683-2.355 0.942-3.953-0.881-5.345-2.636-1.961-4.325-5.068-4.325-8.568 0-0.343 0.016-0.683 0.048-1.018l-0.003 0.043c0.315-1.526 0.495-3.28 0.495-5.077 0-2.719-0.413-5.341-1.18-7.807l0.050 0.186c-3.452-6.931-5.609-15.055-5.936-23.647l-0.003-0.11c-0.287-2.212-0.942-3.379-3.236-2.642s-3.133-0.143-3.707-2.273c-1.114-2.794-1.76-6.032-1.76-9.42 0-2.801 0.441-5.5 1.259-8.029l-0.052 0.185c0.512-1.27 1.085-2.929-0.963-3.543-3.891-1.147-4.096-4.096-4.321-7.496 0.184-1.368 0.289-2.949 0.289-4.555 0-2.999-0.367-5.912-1.058-8.697l0.052 0.247v-48.845c0.632-6.002 1.476-11.244 2.577-16.391l-0.181 1.010c0.799-2.048-1.311-1.577-2.396-1.843v-9.564c0.881-1.126 2.212-2.048 2.58-3.379 0.778-2.601 3.604-5.755 0.41-7.885-1.252-0.717-2.082-2.045-2.082-3.567 0-0.187 0.012-0.37 0.037-0.55l-0.002 0.021c0.266-8.397 2.376-16.63 2.273-25.068 0.146-1.844 0.792-3.513 1.801-4.902l-0.019 0.028c3.243-6.217 5.711-13.431 7.023-21.042l0.063-0.442c1.475-5.284 2.335-10.813 3.768-16.179s5.837-9.216 7.086-14.459c3.188-9.285 7.206-17.328 12.123-24.722l-0.245 0.392c2.806-5.602 6.466-10.356 10.87-14.296l0.045-0.040c3.080-2.826 5.579-6.229 7.333-10.045l0.080-0.195c1.906-4.9 4.621-9.095 8.019-12.628l-0.012 0.012c1.229 5.509-2.56 9.134-4.997 13.21 2.437-4.096 6.144-7.7 4.997-13.21v0c2.059-3.056 4.624-5.601 7.6-7.576l0.1-0.063c3.42-6.431 6.676-12.964 10.342-19.251 1.352-2.314 1.495-6.144 5.673-5.898l0.307-1.638c0.389-1.147 1.004-2.048 2.376-2.048l1.495-1.864c0.196-0.947 0.934-1.678 1.869-1.861l0.015-0.002c0.885-1.718 2.308-3.055 4.043-3.809l0.053-0.020c3.022-6.094 6.707-11.33 11.065-15.921l-0.026 0.028c4.534-4.111 7.831-9.511 9.316-15.619l0.043-0.212c1.565-6.136 6.217-10.904 12.164-12.606l0.124-0.030c7.481-1.852 14.018-5.134 19.602-9.563l-0.105 0.081c7.311-6.431 17.142-9.503 24.187-16.568 0.846-0.656 1.858-1.141 2.961-1.383l0.050-0.009c4.732-1.37 8.865-3.356 12.576-5.911l-0.145 0.094c2.482-1.762 5.573-2.816 8.91-2.816 0.201 0 0.401 0.004 0.601 0.011l-0.029-0.001c5.263 0 10.527 0.164 15.79 0s8.868 3.236 13.332 4.751c1.475 0.492 1.372 2.048 1.249 3.318-0.225 2.212-0.758 4.383-0.983 6.574-0.43 4.239-2.499 5.98-6.902 5.612-3.85-0.328-3.871 0-5.202 3.42 0.944 0.191 2.029 0.301 3.14 0.301 3.408 0 6.575-1.030 9.207-2.796l-0.060 0.038c3.075-2.113 6.649-3.791 10.485-4.837l0.247-0.057c8.403-3.23 18.141-5.492 28.281-6.343l0.391-0.026c6.881-0.451 13.312-3.338 20.070-3.953 9.638-0.82 18.526-2.583 27.031-5.216l-0.898 0.24c1.789-0.536 3.882-0.928 6.036-1.099l0.108-0.007c10.608-0.309 20.725-1.362 30.6-3.113l-1.253 0.184c7.931-0.597 15.292-2.26 22.198-4.851l-0.551 0.181c2.666-1.657 5.901-2.639 9.366-2.639 3.908 0 7.525 1.25 10.471 3.371l-0.053-0.036c4.514 2.678 9.951 4.26 15.758 4.26 0.047 0 0.095 0 0.142 0h-0.007c3.052 0 4.26-0.369 3.461-3.912-0.24-1.521-0.377-3.276-0.377-5.062 0-1.406 0.085-2.792 0.25-4.154l-0.016 0.164c0.102-2.273 0.717-4.997 3.4-5.018 3.695-0.527 7.962-0.828 12.3-0.828 6.741 0 13.313 0.727 19.641 2.106l-0.606-0.111c9.667 3.42 19.661 4.915 29.327 7.864 12.554 3.809 24.74 8.827 37.294 12.677 16.263 5.336 30.259 13.645 42.012 24.37l-0.089-0.081c0.635 0.425 1.416 0.678 2.257 0.678 0.15 0 0.298-0.008 0.444-0.024l-0.018 0.002c3.517 0.226 6.639 1.75 8.927 4.093l0.003 0.003c6.676 5.489 14.991 9.114 19.354 17.203 0.084 0.141 0.212 0.248 0.364 0.306l0.005 0.002c8.194 2.801 15.087 7.62 20.32 13.876l0.058 0.071c2.048 2.458 5.079 4.096 6.144 7.434 4.476 0.454 8.239 3.129 10.206 6.892l0.034 0.071c1.010 2.186 2.69 3.919 4.774 4.97l0.059 0.027c2.41 1.045 4.386 2.705 5.786 4.786l0.030 0.047c4.903 6.99 10.224 13.104 16.114 18.617l0.065 0.061c6.308 7.107 10.424 15.811 17.224 22.528 0.89 1.047 1.526 2.338 1.794 3.758l0.008 0.051c2.043 4.8 4.579 8.94 7.627 12.642l-0.070-0.088c2.396 4.239 3.912 8.745 9.81 8.868 0.369 0 0.676 0.635 1.065 0.922 3.707 2.54 2.662 6.84 3.932 10.24 2.478 6.697-0.696 16.056 8.909 19.497 0.266 0 0.41 0.471 0.655 0.696 2.743 3.334 4.478 7.59 4.688 12.243l0.002 0.045c0.294 6.382 1.849 12.333 4.42 17.704l-0.119-0.276c2.431 3.452 4.212 7.545 5.068 11.967l0.032 0.198c1.957 7.237 3.977 13.172 6.315 18.946l-0.396-1.108v175.124l-1.085-0.696zM245.35 574.771l0.205-0.205zM255.283 625.705v0c0.123 0.266 0.369 0.594 0.307 0.778 0-0.184-0.184-0.512-0.307-0.778zM213.524 625.705v0c-0.137 0.069-0.313 0.145-0.493 0.212l-0.040 0.013c0.246-0.106 0.448-0.209 0.642-0.322l-0.028 0.015zM240.23 314.962c-0.41 2.294-1.638 4.669-2.294 6.984-3.809 0.737-5.755 2.212-5.796 4.362 0-2.15 2.048-3.645 5.796-4.362 0.655-2.314 1.864-4.69 2.273-6.984zM226.509 349.778v0c-1.393 1.618-2.54 2.048-3.564 1.434 1.004 0.635 2.171 0.184 3.564-1.434zM233.247 329.667c-0.064 1.162-0.276 2.253-0.619 3.283l0.025-0.088c0.317-0.942 0.529-2.032 0.592-3.162l0.001-0.033c0.371-0.284 0.841-0.455 1.351-0.455 0.051 0 0.101 0.002 0.151 0.005h-0.007c-0.043-0.003-0.093-0.005-0.144-0.005-0.51 0-0.98 0.171-1.356 0.459l0.005-0.004zM251.208 292.311v0 0zM249.487 292.434c0.246-0.062 0.533-0.106 0.828-0.122l0.012-0.001c-0.31 0.024-0.596 0.075-0.872 0.151l0.032-0.008zM713.073 183.767v0zM713.912 183.542v0zM745.861 207.442v0c-3.467-0.465-6.511-2.003-8.852-4.264l0.005 0.004c-5.755-5.448-13.148-8.684-18.78-14.336-0.794-0.191-1.374-0.895-1.374-1.735 0-0.031 0.001-0.062 0.002-0.092v0.004l-0.819-0.963c-0.023 0.003-0.049 0.004-0.076 0.004-0.313 0-0.574-0.219-0.64-0.512l-0.001-0.004-2.621-1.782c-0.799-0.369-1.864-0.205-2.335-1.208-1.741 0.143-2.458-1.311-3.359-2.335-3.329-3.504-7.263-6.397-11.639-8.518l-0.239-0.105c-16.896-8.991-34.12-17.367-50.975-26.44-6.505-2.46-11.075-8.573-11.223-15.772v-0.018c0-0.942 0-2.273-1.147-2.294-5.878 0-11.756-0.184-17.613 0.205-1.434 0-2.724 2.048-3.42 3.768-0.328 0.799-0.676 1.659 0.43 1.823 6.902 1.106 7.66 6.758 8.909 11.981 0.005 0.118 0.008 0.257 0.008 0.397 0 5.271-4.273 9.544-9.544 9.544-0.133 0-0.264-0.003-0.396-0.008l0.019 0.001c-0.785-0.172-1.433-0.658-1.816-1.318l-0.007-0.013c-1.106-2.929-3.42-2.949-5.898-2.744-10.821 1.319-23.349 2.072-36.053 2.072-1.372 0-2.743-0.009-4.111-0.026l0.208 0.002c-0.165 0.005-0.359 0.007-0.554 0.007-3.156 0-6.155-0.674-8.861-1.885l0.138 0.055c-2.413-1.418-5.315-2.256-8.412-2.256-3.252 0-6.289 0.923-8.862 2.522l0.071-0.041-0.266 0.266c-0.717 1.741-2.396 2.048-3.891 2.314-3.948 0.845-8.484 1.329-13.133 1.329-5.383 0-10.614-0.649-15.619-1.873l0.449 0.093c-5.694-1.877-12.562-3.511-19.611-4.595l-0.746-0.094c-3.707-0.205-6.492 2.273-10.24 2.191-7.564 0.146-14.849 0.84-21.959 2.046l0.865-0.121c-13.517 1.618-25.395 8.95-39.158 9.318-10.609 0.287-17.777 9.073-26.972 13.148-5.265 2.605-11.54 5.070-18.037 7.021l-0.886 0.229-0.266 0.123-0.287-0.102c-4.072 5.828-10.153 10.011-17.221 11.557l-0.187 0.034c-1.311 0.778-2.56 1.638-3.932 2.314-3.707 1.802-5.468 6.697-10.404 6.533-1.618 6.349-7.987 7.291-12.288 10.65-3.871 3.092-9.646 4.506-10.875 9.953s-3.789 5.263-7.598 2.97c-0.328 5.796-4.977 8.192-8.929 10.916-3.692 2.242-6.659 5.341-8.682 9.030l-0.063 0.124c-3.332 6.777-7.658 12.543-12.865 17.374l-0.037 0.034c-1.554 1.314-2.755 2.997-3.475 4.915l-0.027 0.082c-4.807 12.335-11.078 22.985-18.768 32.433l0.172-0.218c-2.642 1.577-1.208 6.431-5.427 6.738v0c-0.348 5.468-4.813 9.134-6.144 14.172-0.344 2.302-1.357 4.321-2.832 5.905l0.006-0.007c-0.075-0.334-0.118-0.718-0.118-1.112 0-0.142 0.006-0.283 0.017-0.422l-0.001 0.018c0.045-0.539 0.132-1.035 0.259-1.514l-0.014 0.060c-0.114 0.419-0.201 0.915-0.244 1.423l-0.002 0.031c-0.010 0.121-0.015 0.262-0.015 0.404 0 0.394 0.043 0.778 0.124 1.147l-0.007-0.035-0.86 1.843c-3.083 6.427-5.484 13.888-6.829 21.71l-0.073 0.511c-1.927 7.339-4.173 13.607-6.888 19.618l0.314-0.776c-2.162 7.548-4.24 17.126-5.771 26.885l-0.189 1.459c-1.975 11.799-3.121 25.414-3.154 39.29v0.031c-0.603 6.855-1.733 13.131-3.371 19.199l0.176-0.767c-1.307 8.29-3.089 15.572-5.406 22.612l0.286-1.005c0.288-0.048 0.621-0.075 0.96-0.075 3.393 0 6.144 2.751 6.144 6.144 0 0.163-0.006 0.325-0.019 0.486l0.001-0.021c0.869 8.008 2.748 15.334 5.523 22.202l-0.198-0.554c0.715 2.967 1.125 6.374 1.125 9.877 0 1.824-0.111 3.622-0.327 5.388l0.021-0.212c0 2.785 0.41 4.649 3.85 4.26 0.224-0.043 0.482-0.068 0.745-0.068 1.96 0 3.598 1.377 4.001 3.216l0.005 0.027c4.894 17.277 11.247 32.314 19.177 46.341l-0.54-1.039c3.707 6.146 7.554 13.54 10.967 21.171l0.543 1.357c0.589 2.634 0.927 5.658 0.927 8.762 0 1.915-0.129 3.8-0.378 5.646l0.024-0.216c-0.088 0.554-0.139 1.193-0.139 1.843 0 6.786 5.502 12.288 12.288 12.288 0.251 0 0.5-0.008 0.746-0.022l-0.034 0.002c3.873 0.781 7.226 2.638 9.83 5.243v0c3.789 3.154 7.066 6.881 10.568 10.363 1.148 1.054 1.954 2.462 2.246 4.051l0.007 0.045c0.789 3.26 2.030 6.13 3.674 8.718l-0.069-0.117c1.713 2.746 2.729 6.080 2.729 9.652 0 3.72-1.102 7.183-2.998 10.079l0.043-0.070c-1.044 1.618-1.802 2.908 1.188 3.523 4.096 0.84 5.12 4.526 5.816 7.946 0.369 1.823 0.532 3.031 2.724 2.867 0.080-0.011 0.173-0.017 0.267-0.017 0.926 0 1.708 0.614 1.961 1.457l0.004 0.014c2.949 8.192 10.711 9.974 17.572 12.882 2.478 1.044 4.506 2.806 6.943 4.096 4.794 1.57 10.609 2.96 16.572 3.906l0.672 0.088c1.802 0.594 3.912 0.512 3.584 3.359 0.055 0.63 0.388 1.173 0.874 1.511l0.007 0.004c7.557 4.403 15.299 8.724 22.528 13.455 16.972 9.457 36.651 17.621 57.303 23.466l1.966 0.475c5.079 1.884 10.24 3.318 15.421 5.059 4.709 2.231 8.553 5.628 11.261 9.827l0.064 0.106c3.235 3.489 7.843 5.666 12.959 5.666 3.030 0 5.881-0.763 8.372-2.108l-0.094 0.046c3.414-2.588 7.733-4.145 12.415-4.145 0.503 0 1.002 0.018 1.495 0.053l-0.066-0.004c1.004 0.098 2.17 0.154 3.348 0.154s2.345-0.056 3.495-0.165l-0.147 0.011c1.086-0.076 2.354-0.119 3.632-0.119 8.636 0 16.812 1.97 24.102 5.486l-0.332-0.144c0.955 0.373 2.060 0.589 3.215 0.589s2.261-0.216 3.277-0.61l-0.062 0.021c5.256-2.181 11.5-4.103 17.956-5.448l0.701-0.122c2.034-0.261 4.387-0.409 6.775-0.409 4.312 0 8.512 0.485 12.546 1.403l-0.377-0.072c0.702 0.233 1.511 0.368 2.351 0.368 1.923 0 3.682-0.705 5.032-1.871l-0.010 0.008c3.752-3.35 8.73-5.397 14.186-5.397 0.774 0 1.539 0.041 2.292 0.122l-0.094-0.008c0.393 0.069 0.846 0.108 1.308 0.108 2.704 0 5.094-1.344 6.539-3.4l0.017-0.025c0.266-0.389 0.614-1.004 0.963-1.024 7.762-0.676 6.84-8.192 9.769-12.595 0.735-1.548 2.286-2.599 4.082-2.599 0.142 0 0.282 0.007 0.421 0.019l-0.018-0.001c7.926 0.471 12.411-5.304 17.388-9.953 1.507-1.777 2.814-3.799 3.841-5.977l0.071-0.167c-3.962 1.997-8.6 3.76-13.433 5.045l-0.514 0.116c-5.939 2.048-12.104 3.748-18.022 6.144-8.049 3.095-17.706 5.857-27.655 7.802l-1.14 0.186c-13.138 2.322-28.263 3.65-43.699 3.65-3.509 0-7.003-0.069-10.479-0.205l0.5 0.016c-21.996 0-44.012 0.307-66.007-0.164-7.762-0.164-15.073 2.048-22.712 2.314-0.383 0.036-0.827 0.056-1.277 0.056-4.565 0-8.64-2.095-11.318-5.375l-0.021-0.026c-2.5-2.741-5.763-4.748-9.452-5.685l-0.133-0.029c-12.724-3.169-23.866-7.485-34.283-12.99l0.819 0.394c-2.343-1.412-5.050-2.673-7.894-3.639l-0.298-0.088c-7.762-2.724-8.192-10.916-12.718-15.954-2.048-2.232-1.167-7.537-2.499-11.284-0.015-0.093-0.024-0.2-0.024-0.309 0-0.73 0.382-1.371 0.957-1.734l0.008-0.005c1.267-0.937 2.861-1.499 4.585-1.499 0.895 0 1.755 0.152 2.555 0.43l-0.054-0.017c2.048 0.471 5.018-1.618 5.509 2.724 0.246 2.048 2.662 1.085 4.096 1.126 2.136-0.097 4.64-0.153 7.157-0.153 9.565 0 18.943 0.8 28.070 2.338l-0.985-0.137c7.579 2.488 13.859 5.060 19.921 8.009l-0.936-0.411c0.959 0.378 2.071 0.597 3.233 0.597 1.577 0 3.060-0.403 4.351-1.112l-0.047 0.024c3.894-1.491 8.398-2.354 13.103-2.354 3.446 0 6.784 0.463 9.955 1.33l-0.264-0.062c10.291 3.492 18.585 6.879 26.647 10.675l-1.559-0.66c1.903 0.717 4.103 1.187 6.396 1.308l0.055 0.002c4.342 0.211 9.429 0.331 14.545 0.331 6.988 0 13.923-0.224 20.799-0.666l-0.938 0.048c14.453-0.22 28.331-2.284 41.535-5.967l-1.148 0.273c7.838-3.147 17.672-6.318 27.749-8.881l1.742-0.376c7.921-3.665 17.605-7.296 27.576-10.26l1.608-0.41c1.67-0.219 3.136-0.96 4.262-2.050l-0.002 0.002c6.348-5.217 13.703-9.521 21.683-12.559l0.538-0.18c3.154-1.618 5.632-4.833 9.687-4.608 0.287 0 0.881-0.594 0.881-0.942 0.225-5.673 3.461-2.703 6.287-1.925 0.267-3.908 3.238-7.047 7.043-7.573l0.043-0.005c7.946-2.048 11.633-8.95 16.548-14.336 3.523-3.83 8.458-5.755 11.796-9.523 3.968-5.287 8.063-9.967 12.479-14.322l0.014-0.014c1.556-1.311 2.683-3.215 5.14-3.031 0.553 0 1.516-0.246 1.659-0.614 3.604-9.974 13.394-14.336 19.661-21.996 2.048-2.417 3.891-5.427 8.008-5.325 2.048 0 1.434-2.273 1.27-3.461-0.14-0.686-0.221-1.475-0.221-2.282 0-4.046 2.016-7.62 5.097-9.775l0.039-0.026c0.901-0.676 1.823-1.679 1.659-2.785-1.27-8.581 4.465-15.442 5.632-23.368 1.458-6.213 3.52-11.676 6.186-16.773l-0.185 0.389c0.223-1.506 0.909-2.822 1.905-3.83l-0.001 0.001c0.157-1.519 0.866-2.849 1.92-3.805l0.005-0.004c0-0.030-0.001-0.066-0.001-0.101 0-1.374 0.397-2.656 1.083-3.736l-0.017 0.028c-0.015-0.268-0.024-0.582-0.024-0.898 0-2.653 0.613-5.162 1.706-7.394l-0.044 0.099c-0.001-0.065-0.002-0.141-0.002-0.217 0-2.143 0.453-4.18 1.268-6.022l-0.038 0.095c0-1.925-0.758-4.465 2.826-3.748 4.096-1.659 0.266-4.628 1.147-6.82l-0.123-1.884c0.19 0.126 0.353 0.275 0.488 0.446l0.003 0.004c-0.139-0.176-0.301-0.325-0.484-0.446l-0.008-0.005-0.84-3.891c-0.237-1.212-0.372-2.605-0.372-4.030 0-2.645 0.467-5.181 1.322-7.531l-0.049 0.153 0.696-2.888c0.205-1.434-0.922-3.666 2.048-3.441 3.42-0.819 4.342-2.499 2.499-5.796-1.577-3.025-2.502-6.606-2.502-10.403 0-1.237 0.098-2.45 0.287-3.634l-0.017 0.13c1.158-5.951 1.82-12.795 1.82-19.794 0-5.546-0.416-10.995-1.218-16.317l0.074 0.599c-0.495-1.799-0.779-3.866-0.779-5.998 0-0.051 0-0.103 0-0.154v0.008c0.014-1.056 0.022-2.303 0.022-3.552 0-17.022-1.498-33.694-4.37-49.892l0.252 1.712c-0.143-1.147-0.123-2.56-1.516-2.58-6.881 0-6.984-5.243-7.086-9.81-0.111-4.863-0.927-9.497-2.349-13.857l0.096 0.34c-1.325-2.71-2.101-5.897-2.101-9.265 0-2.643 0.477-5.175 1.35-7.513l-0.049 0.148c0.59-1.065 0.938-2.336 0.938-3.688 0-1.691-0.543-3.255-1.465-4.526l0.015 0.022c-2.058-1.975-3.337-4.749-3.337-7.821 0-0.572 0.044-1.133 0.13-1.681l-0.008 0.061c0.123-1.556-0.573-2.54-2.191-2.355-5.038 0.573-8.192-3.195-11.694-5.509-3.792-1.855-6.357-5.685-6.357-10.113 0-0.77 0.077-1.521 0.225-2.247l-0.012 0.072c0.655-3.011-0.696-4.526-3.912-4.096-2.048 0.287-2.56-0.819-3.113-2.642-0.696-2.013-1.098-4.333-1.098-6.747 0-7.498 3.879-14.091 9.739-17.881l0.083-0.051c0.813-0.734 1.895-1.183 3.083-1.183 1.36 0 2.583 0.589 3.426 1.527l0.004 0.004c3.816 4.848 8.121 9.055 12.909 12.652l0.177 0.128c1.397 1.269 2.271 3.092 2.273 5.12v0c0.488 3.264 2.163 6.068 4.564 8.009l0.024 0.019c7.886 8.49 13.763 18.955 16.805 30.568l0.111 0.5c1.125 3.811 2.775 7.134 4.901 10.093l-0.068-0.099c4.809 6.207 8.406 13.61 10.287 21.673l0.076 0.384c2.601 10.793 4.096 21.852 5.734 32.768 0.799 5.222 4.096 9.81 4.547 14.766 0.376 3.013 0.59 6.501 0.59 10.039 0 5.707-0.558 11.283-1.621 16.678l0.089-0.544c-0.184 1.556-0.41 3.133-0.532 4.69 0 0.922-0.369 2.458 0.512 2.621 5.632 1.024 4.813 5.878 5.202 9.38 0.235 3.085 0.369 6.681 0.369 10.308 0 2.418-0.059 4.822-0.177 7.211l0.013-0.336c0 3.133-3.052 5.53-2.171 9.011 0.41 1.638-0.164 3.523 1.311 4.895 0.521 0.45 0.849 1.111 0.849 1.849 0 0.284-0.049 0.557-0.138 0.81l0.005-0.017c-1.565 6.387-2.463 13.721-2.463 21.263 0 3.092 0.151 6.149 0.446 9.163l-0.030-0.382c0.004 0.157 0.007 0.342 0.007 0.528 0 1.867-0.257 3.674-0.737 5.388l0.034-0.14c-2.262 6.318-4.128 13.791-5.266 21.501l-0.080 0.658c-1.894 8.326-4.542 15.644-7.961 22.512l0.26-0.577c-3.653 6.096-6.263 13.248-7.376 20.885l-0.037 0.312c-0.164 3.707-3.256 6.144-5.1 8.97-1.412 2.063-2.617 4.433-3.499 6.955l-0.065 0.213c-1.995 8.61-7.259 15.734-14.383 20.135l-0.137 0.079c-0.86 0.323-1.461 1.139-1.461 2.095 0 0.063 0.003 0.125 0.008 0.186l-0.001-0.008c0.86 4.792-2.314 8.438-3.4 12.677-0.914 2.751-2.516 5.067-4.606 6.822l-0.023 0.019c-4.874 4.833-8.909 10.486-13.414 15.503-4.895 5.468-7.864 12.759-14.541 16.671-0.746 0.545-1.358 1.229-1.806 2.016l-0.017 0.032c-3.793 5.274-8.994 9.319-15.053 11.619l-0.225 0.075c-0.778 0.328-1.597 0.532-1.516 1.475 0.184 2.54-1.679 3.973-3.277 5.632 2.048 1.311 3.523 0.369 5.059-0.266 3.666-1.516 7.311-3.092 10.998-4.567 1.268-0.303 2.304-1.118 2.897-2.209l0.012-0.023c1.372-2.789 3.321-5.105 5.704-6.866l0.051-0.036c6.144-5.059 11.407-10.813 17.039-16.282 3.97-3.521 7.365-7.568 10.108-12.056l0.132-0.232c2.762-4.601 5.957-8.565 9.621-12.039l0.025-0.024c4.085-4.154 7.923-8.59 11.468-13.26l0.247-0.339c1.405-1.937 2.549-4.18 3.313-6.592l0.046-0.166c1.884-5.7 5.386-10.439 9.959-13.811l0.076-0.054c2.58-1.782 2.15-4.669 2.335-6.902 0.508-4.413 2.529-8.279 5.522-11.134l0.007-0.007c3.951-4.464 6.363-10.369 6.363-16.837 0-0.468-0.013-0.932-0.037-1.393l0.003 0.064c0-2.806 2.212-4.096 2.703-6.369 0.758-3.564 1.393-7.168 2.048-10.752 2.271-9.89 4.979-18.363 8.298-26.523l-0.413 1.148c0.409-1.309 0.645-2.813 0.645-4.373 0-0.436-0.018-0.868-0.054-1.294l0.004 0.056c0-3.85-0.307-7.68 3.584-10.24 0.601-0.469 0.983-1.193 0.983-2.007 0-0.014 0-0.029 0-0.043v0.002c-0.922-7.414 2.785-14.336 2.253-21.709-0.115-3.010-0.181-6.545-0.181-10.095 0-11.693 0.713-23.219 2.098-34.537l-0.135 1.358c0.184-2.314 1.782-3.666 2.499-5.55v0l-0.799-2.048c-1.885-1.413-3.096-3.635-3.113-6.141v-0.003c-0.411-3.577-0.645-7.722-0.645-11.921 0-3.778 0.19-7.513 0.56-11.193l-0.038 0.464c3.543-0.758 3.768-2.99 2.212-5.612-3.953-6.676-4.403-14.746-7.639-21.361-4.71-9.605-4.096-20.48-8.97-29.819-1.864-3.502-4.096-6.656-6.144-10.076-0.888-1.147-1.748-2.439-2.516-3.79l-0.085-0.163c-1.469-5.465-4.909-9.958-9.492-12.767l-0.093-0.053c-1.874-1.166-3.103-3.214-3.103-5.549 0-0.531 0.064-1.047 0.183-1.541l-0.009 0.045c0.086-0.626 0.135-1.35 0.135-2.085 0-2.108-0.403-4.123-1.136-5.97l0.038 0.11h0.881c0.022-0.001 0.049-0.001 0.075-0.001 1.354 0 2.484 0.959 2.748 2.236l0.003 0.018c-0.267-1.294-1.397-2.254-2.751-2.254-0.026 0-0.053 0-0.079 0.001h0.004c0-0.029 0.001-0.063 0.001-0.097 0-1.306-0.279-2.547-0.781-3.666l0.023 0.057c0.479 1.064 0.758 2.306 0.758 3.614 0 0.033 0 0.065-0.001 0.098v-0.005h-0.881l-2.806-4.833c-1.393-1.27-1.147-3.195-1.905-4.731l-0.553-1.7c-3.809-5.489-7.844-10.895-11.51-16.384-6.922-10.874-13.535-23.474-19.099-36.626l-0.643-1.712c-1.413-1.287-2.998-2.428-4.705-3.375l-0.128-0.065c-2.246-0.737-3.839-2.815-3.839-5.265 0-0.31 0.026-0.615 0.075-0.911l-0.004 0.032c-0.602 0.126-1.293 0.197-2.001 0.197-3.581 0-6.733-1.839-8.564-4.623l-0.024-0.039-0.942-1.106zM843.059 414.904v0zM801.444 282.399v0 0zM798.556 275.743c-0.553-1.147-1.229-2.191-1.679-3.42 0.471 1.208 1.126 2.273 1.679 3.42v0zM613.54 777.359c-1.468 1.332-2.386 3.247-2.386 5.376 0 1.2 0.291 2.331 0.807 3.328l-0.019-0.040c1.434 2.54 1.864 6.554 6.267 6.943 0.313 0.049 0.675 0.076 1.042 0.076 3.117 0 5.768-1.995 6.745-4.778l0.015-0.050c1.523-3.174 4.106-5.637 7.28-6.97l0.093-0.035c1.509-0.617 2.775-1.561 3.755-2.749l0.013-0.016c1.864-2.478 0.594-4.833-2.499-4.936-2.376 0-4.772 0-7.148 0-0.987-0.221-2.121-0.348-3.285-0.348-4.142 0-7.908 1.605-10.712 4.227l0.009-0.008zM719.421 214.344c1.105-0.862 1.809-2.194 1.809-3.691 0-2.509-1.979-4.556-4.461-4.665h-0.010c-2.788-0.817-6-1.321-9.319-1.392l-0.041-0.001c-3.154 0.123-4.956-2.703-7.864-2.806-0.368 0.737-0.584 1.607-0.584 2.526 0 1.948 0.968 3.671 2.45 4.712l0.018 0.012c1.129 1.054 2.068 2.293 2.771 3.673l0.035 0.075c1.521 2.987 4.572 4.997 8.093 4.997 2.871 0 5.43-1.337 7.089-3.422l0.014-0.019zM740.147 231.547c1.618-2.048-1.413-4.096-2.355-4.813-1.741-1.27-3.092-2.847-4.669-4.239-0.717-0.635-1.454-1.352-2.499-0.983-1.454 0.492-0.881 1.802-1.004 2.662 0.123 1.925-0.573 4.219 2.58 3.994 1.434 0 1.843 1.782 3.072 2.048 1.761 0.287 3.215 3.461 4.874 1.413zM545.485 202.957c0-0.43 0.266-1.085 0-1.229-0.532-0.41-0.655 0.164-0.799 0.553l0.717 0.676z" />
<glyph unicode="&#xe920;" d="M307.2 960h409.6c169.662 0 307.2-137.538 307.2-307.2v-409.6c0-169.662-137.538-307.2-307.2-307.2h-409.6c-169.662 0-307.2 137.538-307.2 307.2v409.6c0 169.662 137.538 307.2 307.2 307.2z" />
<glyph unicode="&#xe921;" glyph-name="Coffee-1" d="M464 848c-4.344 8.599-7.254 18.637-8.122 29.252l-0.019 0.291c-0.147 1.922-0.231 4.164-0.231 6.424 0 8.445 1.168 16.617 3.352 24.364l-0.152-0.631c3.544 10.010 7.813 18.649 12.953 26.675l-0.307-0.512c3.905 7.569 6.853 16.354 8.378 25.619l0.070 0.518c0.797-3.812 1.253-8.192 1.253-12.678 0-5.812-0.765-11.446-2.201-16.805l0.103 0.453c-2.76-7.117-5.402-15.866-7.43-24.848l-0.25-1.316c-0.553-3.868-0.868-8.336-0.868-12.877s0.316-9.009 0.926-13.382l-0.058 0.505c1.149-8.991 3.859-17.137 7.861-24.477l-0.181 0.362c4.383-8.569 7.342-18.572 8.273-29.158l0.022-0.308c0.14-1.888 0.22-4.089 0.22-6.309 0-8.504-1.174-16.733-3.369-24.536l0.153 0.637c-3.544-10.010-7.813-18.649-12.953-26.675l0.307 0.512c-3.906-7.553-6.861-16.319-8.402-25.563l-0.072-0.523c-0.804 3.828-1.264 8.227-1.264 12.734 0 5.792 0.76 11.406 2.186 16.749l-0.103-0.453c2.741 7.093 5.383 15.841 7.423 24.818l0.257 1.345c0.548 3.868 0.861 8.336 0.861 12.877s-0.313 9.009-0.918 13.383l0.057-0.506c-1.133 8.982-3.845 17.121-7.859 24.445l0.179-0.356zM553.114 782.259c0.548-3.868 0.861-8.336 0.861-12.877s-0.313-9.009-0.918-13.383l0.057 0.506c-2.276-10.295-4.918-19.044-8.129-27.513l0.449 1.35c-1.309-4.876-2.061-10.475-2.061-16.249 0-4.523 0.461-8.939 1.339-13.202l-0.072 0.421c1.625 9.77 4.58 18.534 8.711 26.596l-0.237-0.509c4.829 7.514 9.097 16.152 12.366 25.267l0.281 0.897c2.028 7.134 3.194 15.328 3.194 23.794 0 2.239-0.082 4.459-0.242 6.657l0.017-0.294c-0.885 10.906-3.794 20.943-8.353 30.009l0.213-0.466c-3.826 6.962-6.537 15.091-7.644 23.722l-0.036 0.342c-0.547 3.868-0.859 8.336-0.859 12.877s0.312 9.009 0.916 13.383l-0.057-0.507c2.283 10.305 4.926 19.054 8.132 27.525l-0.452-1.362c1.305 4.857 2.054 10.434 2.054 16.185 0 4.546-0.468 8.984-1.359 13.266l0.073-0.42c-1.612-9.777-4.559-18.551-8.685-26.622l0.237 0.51c-4.852-7.517-9.122-16.157-12.372-25.281l-0.274-0.882c-2.030-7.122-3.198-15.303-3.198-23.755 0-2.253 0.083-4.486 0.246-6.697l-0.017 0.295c0.904-10.873 3.821-20.873 8.379-29.904l-0.212 0.464c3.826-6.962 6.536-15.091 7.644-23.722l0.036-0.342zM711.091 630.707c0 11.876-9.628 21.504-21.504 21.504h-355.046c-11.881 0-21.515-9.625-21.53-21.503v-19.508h397.978zM792.448 575.411v-21.171c0-10.844-8.791-19.635-19.635-19.635-0.009 0-0.018 0-0.027 0h-4.146l-68.531-568.755c-2.074-16.864-16.286-29.8-33.531-29.85h-308.997c-0.003 0-0.006 0-0.009 0-17.289 0-31.552 12.954-33.613 29.685l-0.016 0.164-68.454 568.627h-4.147c-0.008 0-0.017 0-0.026 0-10.844 0-19.635 8.791-19.635 19.635v0 21.171c0 10.858 8.802 19.661 19.661 19.661v0h521.344c10.858 0 19.661-8.802 19.661-19.661v0zM723.226 361.523h-109.030c-23.099 31.917-60.238 52.441-102.17 52.441s-79.070-20.524-101.917-52.075l-0.253-0.366h-108.954l26.906-192.154h81.92c23.112-31.897 60.246-52.405 102.17-52.405s79.058 20.508 101.917 52.040l0.252 0.365h81.92zM483.558 312.32c-39.27-23.578-61.286-65.587-42.906-89.6l0.486-0.563c12.639 3.445 23.705 8.339 33.817 14.621l-0.537-0.311c5.854 3.795 10.83 8.355 14.953 13.615l0.1 0.132c4.824 5.795 10.004 10.959 15.624 15.611l0.197 0.158c10.864 8.988 23.268 16.707 36.642 22.638l1.016 0.402c-12.894-7.783-24.001-16.796-33.716-27.131l-0.076-0.082c-4.706-4.989-8.992-10.48-12.739-16.349l-0.265-0.445c-4.156-6.879-9.173-12.744-15.001-17.681l-0.103-0.085c-8.033-6.672-17.149-12.502-26.944-17.128l-0.781-0.332c23.347-17.382 53.76-11.418 86.554 8.32 39.27 23.526 63.846 63.744 42.906 89.6-26.88 33.28-60.032 27.955-99.302 4.429z" />
<glyph unicode="&#xe922;" glyph-name="Danger---Light-icon-1" d="M512 908.8c-254.493 0-460.8-206.307-460.8-460.8s206.307-460.8 460.8-460.8c254.493 0 460.8 206.307 460.8 460.8v0c-0.291 254.376-206.425 460.509-460.773 460.8h-0.027zM512 960c282.77 0 512-229.23 512-512s-229.23-512-512-512c-282.77 0-512 229.23-512 512v0c0 282.77 229.23 512 512 512v0zM511.744 387.942c-14.138 0-25.6 11.462-25.6 25.6v0 244.582c0 14.138 11.462 25.6 25.6 25.6v0c14.138 0 25.6-11.462 25.6-25.6v0-244.582c0-14.138-11.462-25.6-25.6-25.6v0z" />
<glyph unicode="&#xe923;" glyph-name="Down-Arrow-1" d="M785.067 448c0-0.018 0-0.040 0-0.061 0-9.411-3.808-17.932-9.968-24.106l-477.866-477.866c-6.185-6.185-14.729-10.010-24.166-10.010-18.875 0-34.176 15.301-34.176 34.176 0 9.438 3.825 17.982 10.010 24.166l453.769 453.7-453.769 453.7c-6.429 6.216-10.421 14.917-10.421 24.552 0 18.851 15.282 34.133 34.133 34.133 9.634 0 18.336-3.991 24.542-10.411l0.009-0.010 477.867-477.867c6.182-6.163 10.014-14.681 10.035-24.094v-0.004z" />
<glyph unicode="&#xe924;" glyph-name="Golomt-Bank-icon" d="M1024 700.186v-80.719h-1024v80.719c0 0.073 0 0.16 0 0.247 0 55.492 44.915 100.494 100.374 100.634h823.239c55.473-0.14 100.388-45.142 100.388-100.634 0-0.087 0-0.174 0-0.261v0.013zM1024 558.945v-363.238c0-0.074 0-0.161 0-0.248 0-55.499-44.911-100.509-100.372-100.669h-823.24c-55.473 0.14-100.388 45.142-100.388 100.634 0 0.099 0 0.199 0 0.298v-0.015 363.308zM200.775 268.341c0 15.601-12.647 28.248-28.248 28.248v0h-44.173c-15.601 0-28.248-12.647-28.248-28.248v0-44.385c0-15.601 12.647-28.248 28.248-28.248v0h44.173c15.601 0 28.248 12.647 28.248 28.248v0z" />
<glyph unicode="&#xe925;" glyph-name="Star---Gray-icon" horiz-adv-x="1106" d="M880.128 323.072c-11.372-10.697-18.454-25.843-18.454-42.643 0-3.384 0.287-6.701 0.839-9.927l-0.049 0.346 49.28-265.216c0.568-3.040 0.892-6.537 0.892-10.11 0-20.009-10.18-37.641-25.644-47.998l-0.209-0.132c-9.978-7.14-22.428-11.417-35.877-11.417-10.515 0-20.419 2.614-29.098 7.228l0.336-0.163-244.864 124.544c-8.042 4.165-17.511 6.732-27.549 7.038l-0.099 0.002h-15.104c-5.556-0.883-10.549-2.583-15.112-4.991l0.264 0.127-244.992-125.056c-8.462-4.225-18.433-6.698-28.982-6.698-3.641 0-7.214 0.295-10.695 0.861l0.381-0.051c-28.564 5.035-49.986 29.662-49.986 59.293 0 3.243 0.257 6.425 0.75 9.529l-0.045-0.342 49.28 265.088c0.513 2.93 0.807 6.304 0.807 9.746 0 16.912-7.084 32.169-18.446 42.966l-0.025 0.024-199.68 188.672c-11.223 10.495-18.217 25.392-18.217 41.922 0 6.811 1.188 13.345 3.367 19.406l-0.126-0.4c7.732 21.315 26.264 36.948 48.808 40.405l0.344 0.043 274.688 38.4c21.242 2.090 39.139 14.675 48.606 32.436l0.162 0.332 121.088 241.92c2.99 5.626 6.66 10.439 10.986 14.571l0.022 0.021 4.992 3.712c2.576 2.728 5.525 5.066 8.774 6.941l0.186 0.099 6.016 2.176 9.344 3.712h23.296c21.107-2.097 38.912-14.509 48.478-32.059l0.162-0.325 122.624-240.896c9.044-17.417 25.727-29.787 45.488-32.727l0.336-0.041 274.816-38.4c23.298-3.234 42.27-18.921 50.163-40.017l0.141-0.431c1.886-5.446 2.976-11.723 2.976-18.254 0-16.91-7.303-32.114-18.926-42.63l-0.049-0.044z" />
<glyph unicode="&#xe926;" glyph-name="Home---Light-icon-1" horiz-adv-x="967" d="M773.105-63.943h-93.794c-47.347 1.392-85.212 40.054-85.319 87.584v148.693c-0.073 11.124-4.626 21.17-11.942 28.437l-0.002 0.002c-7.1 7.036-16.874 11.384-27.663 11.384-0.273 0-0.546-0.003-0.817-0.008l0.041 0.001h-138.331c-22.038-0.225-39.816-18.142-39.816-40.212 0-0.041 0-0.081 0-0.122v0.006-148.285c0-0.017 0-0.037 0-0.057 0-2.838-0.416-5.579-1.189-8.165l0.052 0.201c-2.010-21.323-11.368-40.148-25.479-54.203l-0.003-0.003c-15.648-15.607-37.243-25.258-61.093-25.258-0.278 0-0.556 0.001-0.834 0.004h-92.102c-107.415 0.161-194.464 87.13-194.755 194.499v421.448s0 0 0 0.341c0.626 46.324 22.62 87.385 56.553 113.855l0.326 0.245 313.576 253.967c30.428 24.619 69.6 39.522 112.252 39.522s81.823-14.903 112.59-39.787l-0.338 0.265 315.112-253.739c34.306-26.537 56.331-67.52 56.879-113.67l0.001-0.089s0 0 0-0.398v-421.818c-0.061-53.977-22.032-102.811-57.497-138.095l-0.008-0.008c-34.753-34.925-82.856-56.539-136.006-56.539-0.137 0-0.275 0-0.412 0h0.022zM680.221-7.064h91.803c0.4-0.004 0.872-0.007 1.345-0.007 37.475 0 71.395 15.221 95.915 39.819l0.004 0.004c25.172 25.027 40.771 59.658 40.839 97.933v421.546c-0.578 28.232-14.039 53.206-34.724 69.356l-0.2 0.15-0.512 0.398-315.226 254.023c-20.809 16.858-47.606 27.065-76.787 27.065s-55.979-10.207-77.017-27.245l0.23 0.18-314.088-254.763c-20.959-16.255-34.437-41.292-34.866-69.494l-0.001-0.070v-420.908c0.064-76.104 61.676-137.795 137.743-137.989h92.448c0.095-0.001 0.207-0.002 0.319-0.002 8.39 0 15.983 3.415 21.464 8.93l0.002 0.002c5.679 5.678 9.197 13.518 9.214 22.18v0.003c0.006 2.262 0.275 4.459 0.778 6.564l-0.039-0.194v141.914c0.127 53.321 43.14 96.554 96.365 97.036h138.263c0.049 0 0.108 0 0.166 0 26.634 0 50.727-10.877 68.080-28.431l0.009-0.009c17.571-17.57 28.439-41.842 28.44-68.653v0-148.853c0.092-16.642 13.429-30.138 30-30.487l0.033-0.001z" />
<glyph unicode="&#xe927;" glyph-name="Home---Light-icon-7" horiz-adv-x="967" d="M773.105-63.943h-93.794c-47.347 1.392-85.212 40.054-85.319 87.584v148.693c-0.073 11.124-4.626 21.17-11.942 28.437l-0.002 0.002c-7.1 7.036-16.874 11.384-27.663 11.384-0.273 0-0.546-0.003-0.817-0.008l0.041 0.001h-138.331c-22.038-0.225-39.816-18.142-39.816-40.212 0-0.041 0-0.081 0-0.122v0.006-148.285c0-0.017 0-0.037 0-0.057 0-2.838-0.416-5.579-1.189-8.165l0.052 0.201c-2.010-21.323-11.368-40.148-25.479-54.203l-0.003-0.003c-15.648-15.607-37.243-25.258-61.093-25.258-0.278 0-0.556 0.001-0.834 0.004h-92.102c-107.415 0.161-194.464 87.13-194.755 194.499v421.448s0 0 0 0.341c0.626 46.324 22.62 87.385 56.553 113.855l0.326 0.245 313.576 253.967c30.428 24.619 69.6 39.522 112.252 39.522s81.823-14.903 112.59-39.787l-0.338 0.265 315.112-253.739c34.306-26.537 56.331-67.52 56.879-113.67l0.001-0.089s0 0 0-0.398v-421.818c-0.061-53.977-22.032-102.811-57.497-138.095l-0.008-0.008c-34.753-34.925-82.856-56.539-136.006-56.539-0.137 0-0.275 0-0.412 0h0.022zM680.221-7.064h91.803c0.4-0.004 0.872-0.007 1.345-0.007 37.475 0 71.395 15.221 95.915 39.819l0.004 0.004c25.172 25.027 40.771 59.658 40.839 97.933v421.546c-0.578 28.232-14.039 53.206-34.724 69.356l-0.2 0.15-0.512 0.398-315.226 254.023c-20.809 16.858-47.606 27.065-76.787 27.065s-55.979-10.207-77.017-27.245l0.23 0.18-314.088-254.763c-20.959-16.255-34.437-41.292-34.866-69.494l-0.001-0.070v-420.908c0.064-76.104 61.676-137.795 137.743-137.989h92.448c0.095-0.001 0.207-0.002 0.319-0.002 8.39 0 15.983 3.415 21.464 8.93l0.002 0.002c5.679 5.678 9.197 13.518 9.214 22.18v0.003c0.006 2.262 0.275 4.459 0.778 6.564l-0.039-0.194v141.914c0.127 53.321 43.14 96.554 96.365 97.036h138.263c0.049 0 0.108 0 0.166 0 26.634 0 50.727-10.877 68.080-28.431l0.009-0.009c17.571-17.57 28.439-41.842 28.44-68.653v0-148.853c0.092-16.642 13.429-30.138 30-30.487l0.033-0.001z" />
<glyph unicode="&#xe928;" glyph-name="Home---Light-icon" horiz-adv-x="967" d="M773.105-63.943h-93.794c-47.347 1.392-85.212 40.054-85.319 87.584v148.693c-0.073 11.124-4.626 21.17-11.942 28.437l-0.002 0.002c-7.1 7.036-16.874 11.384-27.663 11.384-0.273 0-0.546-0.003-0.817-0.008l0.041 0.001h-138.331c-22.038-0.225-39.816-18.142-39.816-40.212 0-0.041 0-0.081 0-0.122v0.006-148.285c0-0.017 0-0.037 0-0.057 0-2.838-0.416-5.579-1.189-8.165l0.052 0.201c-2.010-21.323-11.368-40.148-25.479-54.203l-0.003-0.003c-15.648-15.607-37.243-25.258-61.093-25.258-0.278 0-0.556 0.001-0.834 0.004h-92.102c-107.415 0.161-194.464 87.13-194.755 194.499v421.448s0 0 0 0.341c0.626 46.324 22.62 87.385 56.553 113.855l0.326 0.245 313.576 253.967c30.428 24.619 69.6 39.522 112.252 39.522s81.823-14.903 112.59-39.787l-0.338 0.265 315.112-253.739c34.306-26.537 56.331-67.52 56.879-113.67l0.001-0.089s0 0 0-0.398v-421.818c-0.061-53.977-22.032-102.811-57.497-138.095l-0.008-0.008c-34.753-34.925-82.856-56.539-136.006-56.539-0.137 0-0.275 0-0.412 0h0.022zM680.221-7.064h91.803c0.4-0.004 0.872-0.007 1.345-0.007 37.475 0 71.395 15.221 95.915 39.819l0.004 0.004c25.172 25.027 40.771 59.658 40.839 97.933v421.546c-0.578 28.232-14.039 53.206-34.724 69.356l-0.2 0.15-0.512 0.398-315.226 254.023c-20.809 16.858-47.606 27.065-76.787 27.065s-55.979-10.207-77.017-27.245l0.23 0.18-314.088-254.763c-20.959-16.255-34.437-41.292-34.866-69.494l-0.001-0.070v-420.908c0.064-76.104 61.676-137.795 137.743-137.989h92.448c0.095-0.001 0.207-0.002 0.319-0.002 8.39 0 15.983 3.415 21.464 8.93l0.002 0.002c5.679 5.678 9.197 13.518 9.214 22.18v0.003c0.006 2.262 0.275 4.459 0.778 6.564l-0.039-0.194v141.914c0.127 53.321 43.14 96.554 96.365 97.036h138.263c0.049 0 0.108 0 0.166 0 26.634 0 50.727-10.877 68.080-28.431l0.009-0.009c17.571-17.57 28.439-41.842 28.44-68.653v0-148.853c0.092-16.642 13.429-30.138 30-30.487l0.033-0.001z" />
<glyph unicode="&#xe929;" glyph-name="Juice-1" d="M627.174 12.518c-9.559 64.362-15.018 138.648-15.018 214.21 0 108.914 11.341 215.178 32.908 317.678l-1.762-10.006 84.224 411.597c0.131 0.656 0.206 1.411 0.206 2.183 0 2.884-1.046 5.524-2.78 7.561l0.014-0.017-4.198 4.275h-412.16c-0.013 0-0.029 0-0.045 0-3.626 0-6.865-1.657-9.002-4.255l-0.016-0.020-3.379-5.12 85.222-416.256c19.798-92.502 31.135-198.775 31.135-307.696 0-75.553-5.455-149.832-15.992-222.465l0.986 8.279c-0.239 0.004-0.521 0.007-0.803 0.007-22.779 0-41.715-16.455-45.568-38.127l-0.041-0.28c-0.457-2.011-0.719-4.32-0.719-6.691 0-7.437 2.576-14.273 6.885-19.663l-0.049 0.063c8.668-7.635 20.117-12.295 32.654-12.295 2.116 0 4.2 0.133 6.246 0.39l-0.244-0.025h232.755c1.797-0.231 3.876-0.363 5.986-0.363 12.542 0 23.996 4.659 32.725 12.34l-0.055-0.047c4.248 5.323 6.817 12.149 6.817 19.575 0 2.38-0.264 4.698-0.764 6.927l0.040-0.21c-3.895 21.951-22.831 38.406-45.609 38.406-0.265 0-0.529-0.002-0.792-0.007l0.040 0.001zM395.392 693.76h-26.035l-50.509 246.17h386.842l-50.278-246.17h-220.16c13.978-63.795 30.003-152.192 34.15-183.859 9.702-73.83 21.248-200.115 6.016-225.126-2.995-4.89-20.71-23.040-21.299 61.184-0.589 86.4-36.506 252.979-58.701 347.802zM652.262-38.861c-2.842-3.328-10.752-4.966-23.475-4.966h-232.755c-12.8 0-20.634 1.664-23.475 4.966-1.208 1.934-1.924 4.283-1.924 6.799 0 1.224 0.17 2.409 0.486 3.532l-0.022-0.091c1.643 8.835 7.808 15.919 15.956 18.839l0.172 0.054c-0.559-1.125-0.995-2.43-1.241-3.802l-0.013-0.090c-0.194-0.936-0.305-2.013-0.305-3.115 0-3.131 0.895-6.053 2.443-8.524l-0.039 0.067c2.599-3.979 6.389-6.991 10.858-8.556l0.15-0.046c9.238-3.012 19.873-4.785 30.911-4.864h0.039c9.677-0.486 19.174-0.358 28.646-0.23 37.837 0.922 75.11 4.096 112.435 7.526-37.402 1.587-74.88 3.456-111.744 7.526-9.165 1.126-18.381 2.227-27.264 3.891-6.533 1.161-12.024 2.484-17.391 4.094l1.084-0.279c0.41 0.205 0.768 0.461 1.178 0.64 5.76 2.893 12.262 5.53 18.918 8.141 24.4-3.777 52.546-5.935 81.196-5.935 34.29 0 67.857 3.091 100.44 9.008l-3.409-0.514c8.269 0.461 34.611-1.894 39.552-23.808 0.37-1.092 0.584-2.349 0.584-3.657 0-2.457-0.754-4.738-2.043-6.623l0.026 0.040z" />
<glyph unicode="&#xe92a;" d="M307.2 960h409.6c169.662 0 307.2-137.538 307.2-307.2v-409.6c0-169.662-137.538-307.2-307.2-307.2h-409.6c-169.662 0-307.2 137.538-307.2 307.2v409.6c0 169.662 137.538 307.2 307.2 307.2z" />
<glyph unicode="&#xe92b;" d="M552.284 572.559c1.475-7.086 2.826-14.213 4.424-21.279q20.828-92.549 41.718-185.057c0.076-0.442 0.134-0.978 0.162-1.521l0.001-0.035c-0.942 0-1.802-0.225-2.662-0.225-17.060 0-34.12 0-51.2 0-2.171 0-3.113 0.43-3.523 2.826-1.884 10.834-4.096 21.627-6.144 32.625h-45.588l-6.697-35.226h-57.487c1.249 5.693 2.458 11.284 3.707 16.876q21.258 94.208 42.537 188.416c0.117 0.76 0.184 1.637 0.184 2.529 0 0.025 0 0.051 0 0.076v-0.004zM527.319 446.095l-15.319 78.213h-0.717l-14.684-78.152zM921.6 365.036c-13.763 0-27.505 0-41.267 0-2.335 0-3.4 0.512-3.83 2.99-0.922 5.243-2.048 10.445-3.42 15.626-0.246 0.963-1.311 2.437-2.048 2.458-6.451 0.184-12.902 0.102-19.681 0.102v-20.869h-44.073v145.51c1.147 0 2.253 0.143 3.359 0.143 24.904 0 49.807 0 74.711 0 2.54 0 3.666-0.471 4.28-3.277q15.421-70.001 31.13-139.94c0.259-0.801 0.543-1.479 0.877-2.127l-0.037 0.079zM851.333 423.342h13.476l-12.841 50.094-0.594-0.123zM102.4 365.036h81.572l9.708 44.646h-30.925l23.204 101.315h-4.198c-13.988 0-27.976-0.123-41.964 0-3.236 0-4.444-0.881-5.14-4.096q-13.619-61.030-27.505-122.143c-1.454-6.39-3.154-12.698-4.751-19.046v-0.676zM238.653 364.544h-44.093c1.413 6.554 2.765 12.923 4.096 19.292q13.578 62.218 27.136 124.436c0.471 1.782 0.86 2.847 3.031 2.847 26.030 0 52.081 0 78.111 0 0.59-0.045 1.123-0.118 1.646-0.219l-0.089 0.014v-146.125h-44.155v20.828h-13.783c-7.352 0-7.332 0-8.888-7.25-0.963-4.547-2.048-9.073-3.011-13.844zM264.028 473.272h-0.676l-13.312-49.951h14.008zM330.793 365.036c24.351 0 48.681 0 73.032 0 3.645 0 4.956 0.963 5.755 4.567 8.417 38.605 17.060 77.169 25.62 115.732 1.884 8.479 3.748 16.978 5.632 25.58h-46.162l-22.671-101.396h-0.778v101.212h-44.913v-145.674zM801.382 364.646c0 0.901-0.123 1.597-0.246 2.253-2.458 12.288-5.059 24.576-7.332 36.762-0.614 3.277-2.048 4.342-5.14 4.096-2.703-0.266-5.448 0-8.192 0h-14.971l10.691 102.4h-93.45l8.192-46.1h30.925l-9.155-99.389zM610.918 364.646h88.74c-0.123 1.065-0.184 2.048-0.348 2.826-2.437 12.145-4.977 24.248-7.25 36.413-0.573 3.072-1.823 3.973-4.915 3.891-7.598-0.246-15.196 0-23.327 0l10.772 102.564h-93.512l8.192-46.141h30.925l-9.236-99.471z" />
<glyph unicode="&#xe92c;" glyph-name="Location---Light-icon" horiz-adv-x="853" d="M426.667-64c-47.218 0-154.567 80.441-244.622 183.182-68.267 77.824-182.044 234.325-182.044 408.007-0.005 0.765-0.008 1.67-0.008 2.575 0 236.363 190.596 428.211 426.482 430.235l0.193 0.001c236.078-2.025 426.674-193.872 426.674-430.236 0-0.905-0.003-1.81-0.008-2.714l0.001 0.139c0-173.682-114.176-329.956-182.044-408.007-90.055-102.741-197.404-183.182-244.622-183.182zM426.667 903.111c-204.652-1.99-369.787-168.355-369.787-373.288 0-0.926 0.003-1.851 0.010-2.775l-0.001 0.142c0-153.6 103.765-296.277 165.604-367.616 54.070-69.987 122.367-126.29 200.826-165.183l3.348-1.501c81.807 40.394 150.104 96.697 203.189 165.359l0.985 1.325c61.838 71.282 165.604 213.902 165.604 367.616 0.006 0.782 0.009 1.708 0.009 2.633 0 204.934-165.135 371.298-369.599 373.287l-0.188 0.001zM426.667 701.156c90.329 0 163.556-73.226 163.556-163.556s-73.226-163.556-163.556-163.556c-90.329 0-163.556 73.226-163.556 163.556v0c0.097 90.29 73.265 163.458 163.546 163.556h0.009zM426.667 430.933c58.91 0 106.667 47.756 106.667 106.667s-47.756 106.667-106.667 106.667c-58.91 0-106.667-47.756-106.667-106.667v0c0.065-58.884 47.782-106.602 106.66-106.667h0.006z" />
<glyph unicode="&#xe92d;" glyph-name="Logo-1" d="M1024 435.805c-0.080-0.16-0.149-0.346-0.196-0.54l-0.004-0.018c-0.821-8.922-6.007-16.474-13.378-20.571l-0.134-0.068c-3.811-2.223-8.251-3.884-12.974-4.725l-0.245-0.036c-3.948-0.733-8.49-1.152-13.13-1.152-1.463 0-2.916 0.042-4.358 0.124l0.2-0.009c-7.075 0.284-13.768 1.132-20.267 2.506l0.784-0.139c-3.67 0.758-7.301 1.689-10.958 2.553-0.332 0.080-0.652 0.186-1.024 0.293v21.504c0.213 0 0.386 0 0.545 0h3.325c0.106-0.266 0.199-0.492 0.266-0.705 2.050-7.179 7.391-12.793 14.245-15.179l0.158-0.048c2.968-1.124 6.402-1.875 9.98-2.096l0.101-0.005c0.914-0.086 1.977-0.136 3.051-0.136 2.213 0 4.377 0.209 6.473 0.609l-0.215-0.034c2.927 0.525 5.532 1.6 7.815 3.119l-0.075-0.047c3.828 2.46 6.327 6.696 6.327 11.516 0 0.728-0.057 1.442-0.167 2.139l0.010-0.077c-0.505 4.782-2.753 8.961-6.087 11.954l-0.017 0.015c-2.592 2.41-5.545 4.484-8.757 6.122l-0.219 0.101c-3.99 2.075-8.126 3.99-12.208 6.011-4.474 2.081-8.232 4.187-11.818 6.534l0.354-0.218c-2.328 1.551-4.354 3.261-6.17 5.171l-0.014 0.015c-3.801 4.035-6.136 9.488-6.136 15.485 0 0.635 0.026 1.263 0.077 1.884l-0.005-0.081c0.141 3.615 0.929 7.009 2.252 10.122l-0.071-0.188c2.131 4.823 5.597 8.73 9.93 11.348l0.111 0.062c3.748 2.289 8.12 4.013 12.783 4.92l0.25 0.040c4.445 0.904 9.554 1.421 14.784 1.421 1.32 0 2.633-0.033 3.937-0.098l-0.183 0.007c3.897-0.133 7.766-0.426 11.623-0.904 4.442-0.559 8.83-1.33 13.192-2.314 0.207-0.041 0.385-0.092 0.558-0.155l-0.026 0.008v-21.783c-0.566-0.033-1.228-0.052-1.895-0.052s-1.329 0.019-1.986 0.056l0.091-0.004c-0.073 0.147-0.154 0.336-0.226 0.529l-0.014 0.043c-1.965 6.984-7.383 12.362-14.246 14.236l-0.143 0.033c-2.921 0.983-6.285 1.551-9.782 1.551-2.516 0-4.963-0.294-7.309-0.849l0.215 0.043c-2.487-0.55-4.644-1.716-6.378-3.332l0.008 0.007c-1.838-1.755-3.090-4.111-3.438-6.751l-0.006-0.058c-0.132-0.749-0.208-1.611-0.208-2.492 0-4.194 1.718-7.986 4.488-10.712l0.002-0.002c1.662-1.695 3.515-3.192 5.526-4.461l0.126-0.074c3.008-1.875 6.643-3.856 10.389-5.643l0.702-0.302c4.149-2.075 8.312-4.123 12.381-6.343 4.058-2.176 7.531-4.835 10.517-7.963l0.015-0.016c3.283-3.44 5.606-7.824 6.519-12.704l0.024-0.156c0.12-0.665 0.226-1.33 0.332-1.982zM0 487.377h3.245l0.426 1.33c0.786 2.837 1.802 5.306 3.071 7.616l-0.092-0.182c1.894 3.382 5.071 5.854 8.855 6.776l0.095 0.020c2.086 0.541 4.48 0.851 6.947 0.851 0.050 0 0.099 0 0.149 0h12.28c0.332 0 0.665 0 1.117 0v-1.25q0-36.532 0-73.050c0.001-0.076 0.001-0.166 0.001-0.255 0-2.39-0.242-4.723-0.704-6.976l0.038 0.223c-0.413-2.292-1.226-4.335-2.369-6.148l0.042 0.071c-1.336-2.171-3.577-3.674-6.184-3.986l-0.040-0.004c-0.315-0.052-0.579-0.112-0.838-0.186l0.054 0.013v-2.088h45.535c0 0.279 0.080 0.505 0.093 0.745 0 0.439 0 0.878 0 1.33-0.386 0.080-0.665 0.16-0.971 0.199-1.918 0.253-3.592 1.142-4.838 2.444l-0.003 0.003c-1.29 1.381-2.278 3.061-2.849 4.924l-0.024 0.090c-0.85 2.69-1.34 5.783-1.34 8.991 0 0.275 0.004 0.55 0.011 0.824l-0.001-0.040q0 19.802 0 39.59 0 16.623 0 33.247c0 0.399 0 0.798 0 1.33h1.197c3.817 0 7.647 0 11.463 0 2.038-0.026 4.015-0.175 5.954-0.44l-0.249 0.028c5.23-0.555 9.582-3.831 11.653-8.368l0.037-0.090c0.884-1.804 1.721-3.956 2.382-6.185l0.078-0.305c0.106-0.346 0.226-0.692 0.332-1.024h2.926c0.226 1.037 0.199 25.826 0 26.664h-96.057c-0.479 0.013-0.944 0.066-1.423 0.080zM574.265 380.19c0.243 0.075 0.543 0.145 0.851 0.194l0.040 0.005c4.405 0.394 8.467 1.336 12.292 2.765l-0.323-0.106c7.995 2.883 14.545 8.157 18.955 14.948l0.089 0.146c3.581 5.584 5.708 12.398 5.708 19.709 0 0.173-0.001 0.346-0.004 0.518v-0.026q0 38.939 0 77.864c0 0.918 0 1.849 0 2.766 0.077 2.409 0.558 4.683 1.378 6.789l-0.048-0.14c1.073 2.784 3.509 4.822 6.468 5.313l0.049 0.007c0.692 0.133 1.396 0.213 2.101 0.332v2.66c-1.024 0.213-44.777 0.186-45.575 0v-2.66l1.144-0.12c3.319-0.216 6.106-2.29 7.346-5.184l0.021-0.056c0.239-0.528 0.47-1.169 0.655-1.829l0.024-0.099c0.536-2.018 0.844-4.336 0.844-6.725 0-0.198-0.002-0.395-0.006-0.592v0.029q0-43.074 0-86.162c0-2.181-0.066-4.362-0.226-6.543-0.206-3-0.789-5.794-1.704-8.432l0.068 0.227c-1.605-5.255-5.563-9.348-10.614-11.108l-0.118-0.036c-0.21-0.089-0.385-0.178-0.553-0.278l0.021 0.012v-4.189zM944.208 412.24c-2.289 0.379-4.25 1.561-5.626 3.242l-0.013 0.016c-1.009 1.149-1.936 2.424-2.741 3.779l-0.065 0.118c-1.007 1.696-2.023 3.715-2.905 5.805l-0.127 0.339c-1.915 4.774-3.71 9.602-5.532 14.416-2.825 7.853-8.71 14.012-16.179 17.137l-0.192 0.071c-0.257 0.095-0.472 0.194-0.678 0.306l0.027-0.013c-0.426 0.266-0.412 0.692 0 0.931 0.186 0.093 0.386 0.146 0.572 0.226 2.075 0.878 4.176 1.676 6.21 2.66 4.015 1.842 7.465 4.159 10.48 6.94l-0.027-0.025c3.092 2.814 5.427 6.407 6.697 10.471l0.045 0.168c0.62 2.161 0.976 4.643 0.976 7.209 0 1.209-0.079 2.4-0.233 3.567l0.015-0.137c-0.614 7.735-4.957 14.338-11.211 18.068l-0.106 0.058c-2.844 1.729-6.132 3.141-9.619 4.064l-0.262 0.059c-5.668 1.524-12.175 2.399-18.886 2.399-0.303 0-0.606-0.002-0.908-0.005h0.046c-16.251 0-32.489 0-48.74 0h-1.077c-0.049-0.249-0.077-0.536-0.077-0.829 0-0.453 0.067-0.891 0.192-1.304l-0.008 0.032 0.931-0.16c3.112-0.442 5.634-2.574 6.632-5.421l0.018-0.058c0.167-0.402 0.344-0.92 0.493-1.449l0.026-0.107c0.547-2.078 0.862-4.464 0.862-6.923 0-0.273-0.004-0.546-0.012-0.817l0.001 0.040q0-35.042 0-70.084c-0.006-1.699-0.103-3.368-0.285-5.010l0.019 0.21c-0.182-2.027-0.737-3.886-1.596-5.564l0.040 0.085c-1.129-2.282-3.253-3.924-5.79-4.368l-0.048-0.007-1.423-0.279v-1.915c1.090-0.226 42.769-0.186 43.513 0v1.928l-0.16 0.093-0.705 0.106c-2.276 0.247-4.245 1.392-5.572 3.068l-0.013 0.017c-0.704 0.93-1.27 2.013-1.642 3.182l-0.021 0.076c-0.658 2.010-1.038 4.324-1.038 6.726 0 0.043 0 0.087 0 0.13v-0.007q0 14.070 0 28.14c0.021 0.319 0.059 0.611 0.114 0.897l-0.007-0.046c0.762 0.027 1.657 0.042 2.556 0.042 2.429 0 4.832-0.112 7.204-0.331l-0.304 0.023c2.94-0.378 5.454-1.947 7.081-4.199l0.021-0.030c0.505-0.647 0.985-1.373 1.407-2.136l0.043-0.085c0.944-1.849 1.888-3.71 2.66-5.625q6.49-15.453 12.926-30.946c0.16-0.372 0.332-0.731 0.479-1.037h31.744v1.942c-0.058 0.045-0.123 0.089-0.191 0.128l-0.009 0.005zM878.579 505.198c0.222 0.042 0.491 0.075 0.765 0.092l0.020 0.001c3.378 0 6.756 0 10.134 0 2.864-0.034 5.603-0.518 8.166-1.385l-0.186 0.055c5.606-1.654 9.919-6.015 11.475-11.532l0.028-0.118c0.803-2.565 1.266-5.515 1.266-8.572 0-2.697-0.36-5.31-1.035-7.794l0.048 0.208c-1.401-5.812-5.891-10.302-11.596-11.681l-0.107-0.022c-2.708-0.752-5.818-1.185-9.029-1.185-0.098 0-0.197 0-0.295 0.001h0.015c-2.939 0-5.865 0-8.804 0-0.266 0-0.532 0-0.851 0.080zM102.201 452.003c0.64-5.653 1.951-10.812 3.868-15.667l-0.144 0.414c4.459-12.039 14.062-21.25 26.068-25.081l0.29-0.080c4.396-1.459 9.477-2.414 14.743-2.655l0.125-0.005c1.28-0.090 2.774-0.142 4.279-0.142 5.763 0 11.349 0.755 16.665 2.173l-0.451-0.102c12.715 3.215 22.876 12.065 27.826 23.671l0.101 0.267c2.91 6.651 4.726 14.381 5.011 22.499l0.003 0.109c0.082 1.4 0.128 3.039 0.128 4.687 0 3.169-0.172 6.298-0.508 9.378l0.034-0.381c-0.563 5.523-1.737 10.585-3.465 15.382l0.141-0.447c-2.473 7.116-6.512 13.15-11.724 17.924l-0.032 0.029c-6.361 5.552-14.398 9.336-23.26 10.508l-0.226 0.024c-3.14 0.503-6.761 0.791-10.448 0.791-1.471 0-2.931-0.046-4.379-0.136l0.198 0.010c-4.699-0.207-9.138-0.922-13.387-2.094l0.421 0.099c-8.573-2.328-15.815-7.12-21.129-13.561l-0.056-0.070c-3.698-4.585-6.58-10.002-8.322-15.908l-0.083-0.329c-1.835-6.094-2.891-13.097-2.891-20.347 0-0.299 0.002-0.598 0.005-0.897v0.045c0-0.054 0-0.118 0-0.181 0-3.498 0.218-6.946 0.64-10.33l-0.041 0.404zM173.881 445.46c-0.755-6.199-2.476-11.838-5.018-16.999l0.137 0.309c-1.447-2.91-3.358-5.374-5.665-7.397l-0.027-0.023c-2.839-2.433-6.49-3.992-10.498-4.227l-0.048-0.002c-0.49-0.042-1.060-0.066-1.636-0.066-2.013 0-3.959 0.291-5.797 0.834l0.145-0.037c-3.2 0.974-5.919 2.726-8.033 5.040l-0.012 0.014c-2.346 2.597-4.238 5.657-5.519 9.018l-0.066 0.198c-1.419 3.558-2.543 7.716-3.181 12.032l-0.037 0.309c-0.805 5.199-1.266 11.197-1.266 17.302 0 1.553 0.030 3.098 0.089 4.636l-0.007-0.222c0.113 5.64 0.675 11.067 1.651 16.349l-0.095-0.617c0.868 5.051 2.377 9.573 4.464 13.757l-0.129-0.285c1.223 2.426 2.719 4.507 4.487 6.322l-0.005-0.005c3.295 3.364 7.885 5.449 12.961 5.449 0.32 0 0.638-0.008 0.954-0.025l-0.044 0.002c6.403-0.040 12.026-3.346 15.29-8.335l0.043-0.070c2.189-3.217 3.919-6.957 4.983-10.969l0.057-0.255c1.033-3.604 1.84-7.873 2.264-12.254l0.023-0.3c0.391-3.626 0.614-7.831 0.614-12.089 0-0.271-0.001-0.542-0.003-0.812v0.042c0.004-0.354 0.006-0.772 0.006-1.191 0-5.439-0.394-10.787-1.155-16.015l0.071 0.595zM689.484 409.647c5.736 0.865 10.903 2.612 15.608 5.114l-0.261-0.127c8.072 4.371 14.364 11.153 18.010 19.37l0.103 0.259c3.165 7.058 5.101 15.277 5.318 23.924l0.002 0.080c0.058 1.161 0.090 2.521 0.090 3.889 0 3.631-0.231 7.207-0.679 10.716l0.043-0.416c-0.666 5.617-1.985 10.733-3.896 15.549l0.145-0.415c-4.447 11.844-13.878 20.918-25.669 24.786l-0.29 0.082c-4.732 1.597-10.193 2.609-15.861 2.803l-0.097 0.003c-1.088 0.065-2.36 0.102-3.641 0.102-5.121 0-10.105-0.589-14.887-1.704l0.441 0.087c-13.851-2.907-24.971-12.454-30.023-25.083l-0.098-0.278c-2.751-6.678-4.433-14.42-4.626-22.53l-0.001-0.078c-0.053-1.116-0.083-2.424-0.083-3.739 0-3.613 0.228-7.174 0.672-10.667l-0.043 0.415c0.702-5.796 2.105-11.071 4.138-16.020l-0.148 0.407c4.469-11.584 13.722-20.458 25.272-24.319l0.289-0.084c5.472-1.864 11.775-2.939 18.33-2.939 0.078 0 0.156 0 0.234 0h-0.012c0.24-0.003 0.524-0.005 0.809-0.005 3.84 0 7.61 0.301 11.288 0.882l-0.407-0.053zM656.158 479.93c0.797 5.737 2.421 10.928 4.762 15.703l-0.134-0.303c1.098 2.192 2.392 4.081 3.905 5.77l-0.022-0.024c3.344 3.766 8.198 6.127 13.604 6.127 0.318 0 0.635-0.008 0.949-0.024l-0.044 0.002c6.335-0.032 11.907-3.266 15.185-8.165l0.042-0.067c2.275-3.288 4.062-7.12 5.143-11.237l0.056-0.253c1.047-3.697 1.86-8.072 2.278-12.562l0.022-0.298c0.382-3.708 0.6-8.011 0.6-12.366 0-1.469-0.025-2.932-0.074-4.389l0.006 0.212c-0.103-6.983-0.97-13.712-2.52-20.175l0.127 0.625c-1.031-4.437-2.643-8.352-4.784-11.914l0.103 0.184c-1.055-1.726-2.252-3.219-3.612-4.543l-0.005-0.005c-3.406-3.173-7.99-5.121-13.030-5.121-6.294 0-11.879 3.039-15.367 7.729l-0.036 0.051c-1.42 1.919-2.657 4.11-3.611 6.447l-0.073 0.202c-1.556 3.755-2.774 8.131-3.447 12.685l-0.037 0.308c-0.791 4.998-1.242 10.76-1.242 16.629 0 0.386 0.002 0.772 0.006 1.158v-0.059c-0.004 0.327-0.006 0.714-0.006 1.101 0 5.849 0.457 11.592 1.336 17.194l-0.080-0.621zM206.303 511.142c3.237-0.277 5.908-2.43 6.938-5.356l0.017-0.056c0.146-0.386 0.279-0.771 0.386-1.157 0.528-1.922 0.831-4.128 0.831-6.405 0-0.203-0.002-0.405-0.007-0.607l0.001 0.030q0-26.345 0-52.689c0-0.032 0-0.070 0-0.108 0-2.333 0.135-4.634 0.399-6.896l-0.026 0.275c0.59-5.307 2.445-10.088 5.254-14.16l-0.067 0.103c3.577-5.072 8.477-8.992 14.202-11.294l0.214-0.076c5.905-2.4 12.752-3.82 19.923-3.883h0.025c0.72-0.026 1.566-0.041 2.416-0.041 3.865 0 7.658 0.305 11.358 0.892l-0.409-0.053c5.583 0.807 10.623 2.449 15.234 4.808l-0.273-0.127c6.335 3.149 11.346 8.161 14.413 14.312l0.083 0.183c2.007 4.122 3.18 8.968 3.18 14.089 0 0.129-0.001 0.258-0.002 0.387v-0.020q0 26.597 0 53.195c0 1.529 0 3.072 0.186 4.601 0.12 1.852 0.519 3.577 1.157 5.181l-0.040-0.114c0.936 2.503 3.1 4.345 5.74 4.808l0.045 0.007 1.809 0.319v2.753h-33.672c-0.045-0.333-0.071-0.719-0.071-1.11 0-0.595 0.060-1.177 0.174-1.739l-0.009 0.056 0.904-0.106c3.176-0.242 5.796-2.375 6.753-5.265l0.016-0.054c0.133-0.346 0.253-0.705 0.346-1.064 0.516-1.905 0.813-4.092 0.813-6.348 0-0.106-0.001-0.212-0.002-0.318v0.016q0-27.675 0-55.349c0.001-0.076 0.001-0.167 0.001-0.257 0-3.831-0.673-7.506-1.907-10.911l0.071 0.223c-2.121-6.502-7.362-11.434-13.908-13.084l-0.136-0.029c-2.129-0.578-4.574-0.909-7.096-0.909-1.651 0-3.268 0.142-4.841 0.415l0.168-0.024c-6.65 0.775-12.118 5.146-14.454 11.091l-0.042 0.12c-1.492 3.66-2.358 7.906-2.358 12.354 0 0.192 0.002 0.383 0.005 0.574v-0.029q-0.066 27.927 0 55.855c-0.002 0.122-0.004 0.265-0.004 0.409 0 2.446 0.405 4.798 1.153 6.991l-0.045-0.153c0.99 3.159 3.781 5.457 7.141 5.704l0.027 0.002c0.293 0 0.572 0.093 0.838 0.146v2.66c-0.107 0.078-0.23 0.145-0.361 0.196l-0.011 0.004h-42.902c-0.060 0.006-0.129 0.009-0.199 0.009s-0.14-0.003-0.208-0.010l0.009 0.001s0 0-0.080 0l-0.093-0.093v-2.66l0.997-0.133zM804.372 511.222c3.106-0.275 5.663-2.354 6.633-5.172l0.016-0.054c0.173-0.479 0.332-0.971 0.452-1.463 0.47-1.902 0.739-4.085 0.739-6.331 0-0.233-0.003-0.466-0.009-0.698l0.001 0.034q0-26.292 0-52.596c0-1.596 0-3.205-0.146-4.801-0.226-3.594-1.031-6.94-2.323-10.032l0.076 0.204c-2.241-5.751-6.906-10.128-12.705-11.931l-0.141-0.038c-2.326-0.737-5.001-1.162-7.775-1.162-1.761 0-3.482 0.171-5.147 0.498l0.168-0.027c-3.233 0.54-6.088 1.867-8.452 3.777l0.034-0.027c-2.835 2.392-4.972 5.525-6.119 9.103l-0.039 0.14c-1.211 3.613-1.91 7.774-1.91 12.097 0 0.278 0.003 0.554 0.009 0.831l-0.001-0.041q0 26.917 0 53.82c0 0.918 0 1.849 0.066 2.766 0.089 2.138 0.511 4.15 1.214 6.025l-0.044-0.134c0.96 2.684 3.267 4.663 6.084 5.14l0.046 0.006 1.755 0.306c0.044 0.322 0.068 0.694 0.068 1.072 0 0.605-0.064 1.194-0.185 1.763l0.010-0.055h-43.553s0 0-0.080 0l-0.066-0.080v-2.793c0.093-0.066 0.106-0.106 0.146-0.12l0.811-0.12c3.238-0.273 5.913-2.42 6.951-5.343l0.017-0.056c0.138-0.338 0.288-0.78 0.415-1.232l0.024-0.098c0.501-1.901 0.789-4.083 0.789-6.333 0-0.158-0.001-0.316-0.004-0.473v0.024q0-26.704 0-53.408c-0.002-0.152-0.003-0.331-0.003-0.511 0-2.194 0.161-4.35 0.471-6.457l-0.029 0.239c0.913-6.638 3.82-12.472 8.087-17.012l-0.015 0.016c3.162-3.27 6.979-5.884 11.243-7.633l0.22-0.080c5.906-2.393 12.753-3.809 19.923-3.87h0.025c0.718-0.025 1.561-0.039 2.407-0.039 3.268 0 6.485 0.212 9.641 0.624l-0.372-0.040c5.422 0.635 10.366 2.012 14.959 4.040l-0.33-0.13c4.591 1.994 8.487 4.786 11.682 8.236l0.020 0.022c5.017 5.487 8.090 12.824 8.090 20.879 0 0.187-0.002 0.374-0.005 0.56v-0.028c0 17.834 0 35.68 0 53.514 0 1.702 0.093 3.404 0.226 5.107 0.131 1.812 0.569 3.489 1.261 5.027l-0.038-0.093c0.973 2.252 2.965 3.902 5.379 4.381l0.047 0.008c0.625 0.133 1.33 0.226 1.955 0.346v2.66c-1.33 0.226-32.994 0.173-33.726 0v-2.66l1.090-0.146zM381.859 512.047c-4.145 0.994-9.261 1.86-14.472 2.413l-0.555 0.048c-3.391 0.332-6.796 0.572-10.2 0.718-1.133 0.063-2.459 0.099-3.793 0.099-5.431 0-10.723-0.593-15.815-1.718l0.484 0.090c-4.783-1.013-9.018-2.778-12.803-5.186l0.156 0.093c-4.045-2.55-7.233-6.127-9.245-10.37l-0.064-0.15c-1.562-3.439-2.473-7.459-2.473-11.691 0-0.299 0.005-0.597 0.014-0.894l-0.001 0.043c0-0.023 0-0.051 0-0.079 0-6.125 2.485-11.67 6.503-15.68v0c2.58-2.618 5.535-4.857 8.78-6.631l0.196-0.098c3.311-1.822 6.716-3.484 10.094-5.186 3.777-1.902 7.594-3.724 11.33-5.692 3.143-1.646 5.846-3.603 8.231-5.89l-0.012 0.012c3.684-3.37 5.985-8.199 5.985-13.566 0-0.065 0-0.13-0.001-0.195v0.010c0.001-0.071 0.002-0.155 0.002-0.239 0-4.447-2.183-8.384-5.535-10.798l-0.039-0.027c-2.368-1.736-5.205-2.983-8.283-3.533l-0.122-0.018c-1.88-0.366-4.043-0.575-6.254-0.575-1.076 0-2.14 0.050-3.19 0.146l0.135-0.010c-3.784 0.241-7.312 1.040-10.601 2.317l0.241-0.082c-6.844 2.505-12.038 8.054-14.005 14.962l-0.039 0.158c-0.066 0.226-0.146 0.439-0.226 0.665h-3.99v-21.411c0.090-0.055 0.195-0.109 0.304-0.154l0.015-0.006 0.785-0.226c8.041-2.336 17.44-4.028 27.113-4.734l0.456-0.027c1.972-0.169 4.267-0.265 6.585-0.265 4.374 0 8.667 0.343 12.855 1.004l-0.464-0.060c5.199 0.817 9.871 2.456 14.104 4.792l-0.22-0.111c4.982 2.709 8.928 6.783 11.406 11.72l0.071 0.156c1.796 3.716 2.846 8.082 2.846 12.692 0 0.316-0.005 0.631-0.015 0.945l0.001-0.046c0 0.019 0 0.042 0 0.065 0 7.098-2.893 13.521-7.565 18.152l-0.002 0.002c-2.776 2.721-5.907 5.098-9.311 7.050l-0.224 0.118c-3.99 2.394-8.272 4.349-12.448 6.437q-5.319 2.66-10.506 5.506c-2.1 1.176-3.914 2.499-5.553 4.008l0.020-0.018c-3.456 2.846-5.642 7.124-5.642 11.914 0 0.647 0.040 1.285 0.118 1.912l-0.008-0.075c0.304 3.709 2.333 6.888 5.273 8.763l0.046 0.028c1.346 0.881 2.916 1.557 4.599 1.937l0.096 0.018c2.098 0.491 4.507 0.773 6.981 0.773 3.963 0 7.757-0.722 11.259-2.042l-0.22 0.073c6.405-2.114 11.302-7.186 13.131-13.556l0.035-0.142c0-0.226 0.16-0.439 0.239-0.638h3.843v21.783c-0.119 0.059-0.265 0.117-0.414 0.166l-0.024 0.007zM471.931 434.249c1.902 1.077 3.817 2.114 5.705 3.205 6.059 3.483 11.236 7.702 15.64 12.627l0.053 0.060c2.734 3.040 4.978 6.589 6.562 10.478l0.087 0.241c0.987 2.284 1.561 4.942 1.561 7.735 0 0.156-0.002 0.311-0.005 0.466v-0.023c0 0.013 0 0.028 0 0.043 0 3.229-2.454 5.885-5.599 6.205l-0.026 0.002c-0.552 0.074-1.191 0.116-1.839 0.116-1.763 0-3.453-0.31-5.019-0.879l0.102 0.032c-3.724-1.284-6.944-3.119-9.746-5.44l0.051 0.041c-5.151-4.135-9.427-9.114-12.673-14.761l-0.134-0.253c-3.357-5.637-5.709-12.266-6.622-19.345l-0.027-0.257c-0.079-0.933-0.229-1.79-0.449-2.618l0.024 0.104c-0.808-2.643-2.129-4.922-3.856-6.824l0.013 0.015c-1.653-1.914-3.762-3.39-6.161-4.263l-0.103-0.033c-0.837-0.334-1.807-0.527-2.822-0.527-2.69 0-5.062 1.358-6.469 3.426l-0.017 0.027c-0.811 1.125-1.475 2.427-1.927 3.824l-0.028 0.099c-0.844 2.563-1.331 5.512-1.331 8.576 0 0.099 0.001 0.198 0.002 0.296v-0.015c0 2.66 0.16 5.319 0.346 8.072 0.338 4.696 1.042 9.037 2.093 13.241l-0.112-0.528c2.488 9.84 5.895 18.458 10.244 26.492l-0.297-0.599c2.341 4.468 4.774 8.897 7.062 13.392 2.495 4.453 4.222 9.672 4.85 15.224l0.017 0.189c0.103 0.68 0.161 1.464 0.161 2.262 0 1.321-0.161 2.605-0.463 3.832l0.023-0.11c-0.424 1.782-2.003 3.088-3.886 3.088-1.022 0-1.955-0.384-2.66-1.016l0.004 0.003c-0.821-0.674-1.518-1.459-2.078-2.341l-0.024-0.040c-0.616-0.995-1.221-2.162-1.741-3.374l-0.068-0.177c-5.348-11.643-11.103-26.562-16.068-41.838l-0.901-3.205c-2.933-8.439-5.642-18.777-7.607-29.377l-0.213-1.383c-0.551-2.604-0.867-5.596-0.867-8.662 0-1.211 0.049-2.41 0.146-3.596l-0.010 0.156c0.311-3.349 1.329-6.404 2.902-9.094l-0.056 0.104c1.233-2.166 2.98-3.913 5.080-5.112l0.066-0.035c1.337-0.825 2.957-1.314 4.691-1.314 0.641 0 1.267 0.067 1.871 0.194l-0.059-0.010c1.525 0.348 2.857 0.805 4.12 1.384l-0.131-0.054c6.174 2.913 11.434 6.736 15.86 11.364l0.019 0.020 0.771 0.771c0.133-0.492 0.199-0.851 0.319-1.197 0.395-1.357 0.802-2.474 1.272-3.558l-0.075 0.194c2.151-4.889 6.915-8.26 12.476-8.351h0.012c0.312-0.014 0.677-0.022 1.044-0.022 2.902 0 5.689 0.495 8.28 1.405l-0.175-0.054c5.137 1.78 9.584 4.267 13.494 7.396l-0.089-0.069c1.995 1.543 3.857 3.258 5.745 4.921 0.481 0.344 0.829 0.848 0.968 1.433l0.003 0.017c-0.103 0.023-0.221 0.036-0.342 0.036-0.372 0-0.716-0.123-0.992-0.332l0.004 0.003q-1.995-1.144-3.99-2.341c-1.684-1.127-3.613-2.158-5.645-2.992l-0.22-0.080c-1.85-0.778-4-1.229-6.256-1.229-1.594 0-3.135 0.226-4.593 0.646l0.117-0.029c-5.677 2.052-9.701 7.306-9.907 13.527l-0.001 0.024c0.173 0.106 0.359 0.253 0.559 0.372zM471.505 440.553c1.484 8.935 5.604 16.722 11.522 22.733l-0.005-0.005c0.889 0.901 1.904 1.674 3.017 2.293l0.068 0.035c2.66 1.436 4.495 0.332 4.694-2.66 0.011-0.233 0.017-0.506 0.017-0.78 0-2.281-0.426-4.463-1.202-6.471l0.042 0.123c-1.834-5.026-4.827-9.257-8.668-12.519l-0.042-0.035c-2.621-2.277-5.593-4.259-8.801-5.837l-0.242-0.108c-0.239-0.12-0.492-0.186-0.891-0.346 0.173 1.33 0.293 2.434 0.492 3.564zM505.71 423.118c0.618-4.615 3.669-8.393 7.801-10.037l0.085-0.030c1.734-0.696 3.744-1.1 5.848-1.1 0.884 0 1.751 0.071 2.596 0.208l-0.093-0.012c7.205 0.954 13.576 3.959 18.66 8.4l-0.041-0.035c2.15 1.779 3.929 3.918 5.262 6.337l0.057 0.113c1.083 1.939 1.72 4.254 1.72 6.717 0 0.126-0.002 0.251-0.005 0.376v-0.018c0 0.029 0.001 0.063 0.001 0.097 0 2.595-1.517 4.835-3.712 5.884l-0.039 0.017c-0.563 0.322-1.214 0.607-1.898 0.819l-0.070 0.019q-3.418 0.878-6.862 1.636c-3.232 0.705-6.49 1.33-9.695 2.075-1.44 0.369-2.702 0.875-3.876 1.519l0.085-0.043c-1.656 0.804-2.777 2.473-2.777 4.404 0 0.376 0.043 0.743 0.123 1.095l-0.006-0.033c0.202 1.487 0.637 2.832 1.269 4.059l-0.033-0.070c2.125 4.212 5.46 7.552 9.546 9.625l0.123 0.056c1.722 0.864 3.753 1.37 5.901 1.37 0.366 0 0.729-0.015 1.088-0.044l-0.047 0.003c0.076 0.004 0.164 0.007 0.254 0.007 2.587 0 4.691-2.069 4.747-4.643v-0.005c0.008-0.107 0.013-0.233 0.013-0.359s-0.005-0.252-0.014-0.376l0.001 0.017c0.002-0.105 0.004-0.228 0.004-0.351 0-4.118-1.551-7.874-4.1-10.715l0.013 0.015c-0.16-0.173-0.293-0.386-0.559-0.758 0.278 0.055 0.515 0.119 0.745 0.198l-0.040-0.012c3.144 1.367 5.833 3.199 8.116 5.443l-0.004-0.004c2.871 2.759 4.654 6.63 4.654 10.918 0 0.496-0.024 0.987-0.071 1.471l0.005-0.062c-0.128 3.657-2.743 6.667-6.199 7.398l-0.051 0.009c-0.827 0.178-1.776 0.28-2.749 0.28-0.034 0-0.068 0-0.102 0h0.005c-2.414-0.023-4.725-0.435-6.882-1.176l0.153 0.046c-7.112-2.376-13.195-6.183-18.17-11.108l0.004 0.004c-2.125-2.010-3.987-4.261-5.554-6.719l-0.085-0.143c-1.384-2.043-2.379-4.464-2.818-7.075l-0.015-0.107c-0.112-0.529-0.175-1.137-0.175-1.76 0-3.164 1.646-5.943 4.129-7.527l0.036-0.021c1.232-0.794 2.648-1.51 4.138-2.075l0.158-0.052c3.544-1.293 7.637-2.109 11.9-2.259l0.069-0.002c3.205-0.186 6.41-0.266 9.615-0.426 1.408-0.026 2.744-0.307 3.972-0.798l-0.076 0.027c1.087-0.351 1.859-1.353 1.859-2.536 0-0.336-0.062-0.657-0.176-0.953l0.006 0.018c-0.286-1.107-0.858-2.054-1.633-2.79l-0.003-0.002c-0.827-0.813-1.731-1.552-2.699-2.205l-0.067-0.043c-3.127-1.973-6.857-3.285-10.861-3.65l-0.097-0.007c-1.124-0.107-2.431-0.167-3.751-0.167-3.285 0-6.483 0.376-9.552 1.087l0.284-0.055c-3.414 0.611-6.424 2.017-8.937 4.020l0.040-0.031c-0.111 0.063-0.239 0.118-0.373 0.156l-0.013 0.003c-0.207-0.595-0.327-1.28-0.327-1.993 0-0.529 0.066-1.043 0.19-1.534l-0.009 0.043z" />
<glyph unicode="&#xe92e;" glyph-name="Menu---Bold-icon-1" d="M734.208-64h-443.904c-173.619 0-290.304 121.6-290.304 302.592v418.304c0 181.299 116.685 303.104 290.304 303.104h443.904c173.312 0 289.792-121.805 289.792-303.104v-418.304c0-180.992-116.48-302.592-289.792-302.592zM741.376 509.44c-0.151 0.001-0.331 0.002-0.51 0.002-33.932 0-61.44-27.508-61.44-61.44s27.508-61.44 61.44-61.44c33.752 0 61.147 27.215 61.438 60.898v0.54c0 0.001 0 0.001 0 0.002 0 33.752-27.217 61.148-60.9 61.438h-0.028zM512 509.44c-33.932 0-61.44-27.508-61.44-61.44s27.508-61.44 61.44-61.44c33.932 0 61.44 27.508 61.44 61.44v0c0 33.932-27.508 61.44-61.44 61.44v0zM282.624 509.44c-33.932 0-61.44-27.508-61.44-61.44s27.508-61.44 61.44-61.44c33.932 0 61.44 27.508 61.44 61.44v0c0 33.932-27.508 61.44-61.44 61.44v0z" />
<glyph unicode="&#xe92f;" glyph-name="Menu---Bold-icon-4" d="M734.208-64h-443.904c-173.619 0-290.304 121.6-290.304 302.592v418.304c0 181.299 116.685 303.104 290.304 303.104h443.904c173.312 0 289.792-121.805 289.792-303.104v-418.304c0-180.992-116.48-302.592-289.792-302.592zM741.376 509.44c-0.151 0.001-0.331 0.002-0.51 0.002-33.932 0-61.44-27.508-61.44-61.44s27.508-61.44 61.44-61.44c33.752 0 61.147 27.215 61.438 60.898v0.54c0 0.001 0 0.001 0 0.002 0 33.752-27.217 61.148-60.9 61.438h-0.028zM512 509.44c-33.932 0-61.44-27.508-61.44-61.44s27.508-61.44 61.44-61.44c33.932 0 61.44 27.508 61.44 61.44v0c0 33.932-27.508 61.44-61.44 61.44v0zM282.624 509.44c-33.932 0-61.44-27.508-61.44-61.44s27.508-61.44 61.44-61.44c33.932 0 61.44 27.508 61.44 61.44v0c0 33.932-27.508 61.44-61.44 61.44v0z" />
<glyph unicode="&#xe930;" d="M799.855 510.582c-0.356-0.358-0.849-0.579-1.394-0.579s-1.038 0.222-1.394 0.579v0l-2.037 2.041-1.926-1.93c-0.356-0.358-0.849-0.579-1.394-0.579s-1.038 0.222-1.394 0.579v0c-0.357 0.358-0.579 0.852-0.579 1.398s0.221 1.040 0.579 1.398l1.926 1.93-1.816 1.82c-0.358 0.358-0.58 0.852-0.58 1.398 0 1.091 0.884 1.976 1.976 1.976 0.545 0 1.039-0.221 1.396-0.578v0l1.812-1.82 1.926 1.93c0.357 0.357 0.851 0.578 1.396 0.578 1.091 0 1.976-0.884 1.976-1.976 0-0.546-0.221-1.040-0.58-1.398v0l-1.926-1.93 2.041-2.041c0.357-0.358 0.579-0.852 0.579-1.398s-0.221-1.040-0.579-1.398v0zM587.253 605.18l1.926 1.93c0.353 0.356 0.571 0.847 0.571 1.388 0 1.090-0.884 1.974-1.974 1.974-0.54 0-1.029-0.216-1.385-0.567v0l-1.926-1.93-1.812 1.82c-0.356 0.35-0.845 0.567-1.385 0.567-1.090 0-1.974-0.884-1.974-1.974 0-0.541 0.218-1.032 0.571-1.388v0l1.812-1.82-1.926-1.93c-0.358-0.358-0.58-0.852-0.58-1.398 0-1.091 0.884-1.976 1.976-1.976 0.545 0 1.039 0.221 1.396 0.578v0l1.926 1.93 2.037-2.041c0.357-0.357 0.851-0.578 1.396-0.578 1.091 0 1.976 0.884 1.976 1.976 0 0.546-0.221 1.040-0.58 1.398v0z" />
<glyph unicode="&#xe931;" d="M655.058 651.901c-0.005 0-0.012 0-0.018 0-5.875 0-10.638-4.763-10.638-10.638s4.763-10.638 10.638-10.638c5.875 0 10.638 4.763 10.638 10.638v0c-0.002 5.868-4.753 10.625-10.618 10.638h-0.001zM655.058 635.624c-0.002 0-0.005 0-0.007 0-3.115 0-5.639 2.525-5.639 5.639s2.525 5.639 5.639 5.639c3.115 0 5.639-2.525 5.639-5.639v0c0-3.112-2.521-5.635-5.632-5.639v0zM784.553 461.003c-0.005 0-0.012 0-0.018 0-5.875 0-10.638-4.763-10.638-10.638s4.763-10.638 10.638-10.638c5.875 0 10.638 4.763 10.638 10.638v0c-0.002 5.868-4.753 10.625-10.618 10.638h-0.001zM784.553 444.725c-0.002 0-0.005 0-0.007 0-3.115 0-5.639 2.525-5.639 5.639s2.525 5.639 5.639 5.639c3.115 0 5.639-2.525 5.639-5.639v0c-0.002-3.111-2.521-5.633-5.631-5.639h-0.001zM684.364 424.529c-0.005 0-0.012 0-0.018 0-3.629 0-6.571-2.942-6.571-6.571s2.942-6.571 6.571-6.571c3.629 0 6.571 2.942 6.571 6.571v0c0 0 0 0 0 0 0 3.623-2.932 6.561-6.552 6.571h-0.001zM684.364 416.389c-0.001 0-0.002 0-0.004 0-0.867 0-1.569 0.703-1.569 1.569s0.703 1.569 1.569 1.569c0.867 0 1.569-0.703 1.569-1.569v0c-0.002-0.864-0.701-1.565-1.565-1.569v0zM576.398 545.866c-0.007 0-0.014 0-0.022 0-5.877 0-10.641-4.764-10.641-10.641s4.764-10.641 10.641-10.641c5.877 0 10.641 4.764 10.641 10.641v0c0 0 0 0 0 0 0 5.869-4.752 10.629-10.618 10.641h-0.001zM576.398 529.581c-0.003 0-0.007 0-0.011 0-3.117 0-5.643 2.526-5.643 5.643s2.526 5.643 5.643 5.643c3.117 0 5.643-2.526 5.643-5.643v0c0 0 0 0 0 0 0-3.113-2.52-5.637-5.631-5.643h-0.001zM606.576 432.378c0.482-0.456 0.782-1.1 0.782-1.815 0-1.379-1.118-2.497-2.497-2.497-0.711 0-1.353 0.298-1.808 0.775l-0.001 0.001-1.499 1.507-1.396-1.4c-0.447-0.424-1.052-0.684-1.718-0.684-1.379 0-2.497 1.118-2.497 2.497 0 0.667 0.261 1.273 0.687 1.721l-0.001-0.001 1.396 1.403-1.289 1.293c-0.426 0.447-0.688 1.054-0.688 1.721 0 1.379 1.118 2.497 2.497 2.497 0.665 0 1.269-0.26 1.717-0.684l1.292-1.292 1.396 1.4c0.447 0.424 1.052 0.684 1.718 0.684 1.379 0 2.497-1.118 2.497-2.497 0-0.667-0.261-1.273-0.687-1.721l0.001 0.001-1.396-1.4zM768.427 606.676c0.453-0.452 0.733-1.077 0.733-1.768 0-1.38-1.118-2.498-2.498-2.498-0.689 0-1.313 0.279-1.764 0.73v0l-4.991 4.998-4.766-4.788c-0.447-0.424-1.052-0.684-1.718-0.684-1.379 0-2.497 1.118-2.497 2.497 0 0.667 0.261 1.273 0.687 1.721l-0.001-0.001 4.77 4.788-4.531 4.564c-0.426 0.447-0.688 1.054-0.688 1.721 0 1.379 1.118 2.497 2.497 2.497 0.665 0 1.269-0.26 1.717-0.684l-0.001 0.001 4.549-4.56 4.788 4.788c0.447 0.424 1.052 0.684 1.718 0.684 1.379 0 2.497-1.118 2.497-2.497 0-0.667-0.261-1.273-0.687-1.721l-4.787-4.787z" />
</font>
</defs>
</svg>
